<svg width="1358" height="225" viewBox="0 0 1358 225" fill="none" xmlns="http://www.w3.org/2000/svg">
<line x1="6.8131" y1="197.002" x2="631.813" y2="161.002" stroke="#65656A" stroke-width="2"/>
<line x1="659.81" y1="159.002" x2="1263.82" y2="122.124" stroke="#65656A" stroke-width="2"/>
<line x1="4.81298" y1="74.8801" x2="1284.81" y2="1.00166" stroke="#65656A" stroke-width="2"/>
<path d="M46.0356 64.6561C44.5974 64.2746 43.4732 63.6378 42.663 62.7455C41.8969 61.8034 41.3597 60.7527 41.0514 59.5933C40.7432 58.4339 40.6198 57.2159 40.6814 55.9391C40.787 54.6124 40.9909 53.3503 41.2931 52.1527C42.608 50.5618 44.074 48.7492 45.6911 46.7151C47.3522 44.631 49.1103 42.5881 50.9651 40.5862C52.82 38.5843 54.7542 36.7189 56.7676 34.99C58.825 33.2111 60.9309 31.83 63.0852 30.8466C63.816 30.4709 64.4045 30.4576 64.8507 30.8069C65.3409 31.1062 65.7034 31.6257 65.9382 32.3654C66.1731 33.105 66.2979 33.9694 66.3126 34.9585C66.3743 35.9447 66.3641 36.9119 66.282 37.8599C66.1999 38.808 66.0649 39.6651 65.8771 40.4311C65.6893 41.1972 65.4868 41.7285 65.2696 42.025C64.7472 42.7177 63.6921 43.5616 62.1043 44.5567C60.5634 45.5489 58.8405 46.6467 56.9357 47.8503C55.0279 49.0068 53.1231 50.2104 51.2212 51.4609C49.3193 52.7113 47.7696 53.9398 46.5722 55.1462C45.3718 56.3057 44.6879 57.4328 44.5207 58.5276C44.3535 59.6224 45.0726 60.5675 46.6782 61.3628C48.2867 61.4508 50.2077 61.2599 52.4413 60.7901C54.719 60.2705 57.0142 59.6554 59.3271 58.945C61.6839 58.1846 63.9469 57.4301 66.1159 56.6815C68.282 55.886 70.0577 55.2563 71.4431 54.7924L72.3369 55.5144C71.3889 56.941 69.7761 58.2912 67.4985 59.5652C65.2209 60.8392 62.7437 61.9371 60.067 62.8589C57.3872 63.7338 54.7633 64.3694 52.195 64.7658C49.6239 65.1152 47.5707 65.0787 46.0356 64.6561ZM61.188 36.6935C61.1381 36.6495 60.7991 36.8829 60.171 37.3936C59.54 37.8574 58.7549 38.4959 57.8157 39.309C56.9205 40.0722 55.9373 40.9351 54.866 41.8979C53.8388 42.8108 52.8791 43.6724 51.9868 44.4825C51.1416 45.2897 50.4313 45.9942 49.856 46.5959C49.2779 47.1507 49.0357 47.4252 49.1297 47.4193C49.8899 47.5132 50.8467 47.359 52.0002 46.9568C53.1977 46.5047 54.4099 45.9103 55.6367 45.1735C56.9105 44.4338 58.1095 43.628 59.2336 42.7562C60.3547 41.8374 61.2191 40.9583 61.8266 40.1188C62.4811 39.2764 62.7892 38.5499 62.751 37.9394C62.7598 37.326 62.2388 36.9107 61.188 36.6935Z" fill="#65666A"/>
<path d="M71.9058 62.189C71.442 61.5579 71.4889 60.8007 72.0466 59.9171C72.6042 59.0336 73.4406 58.0855 74.5559 57.0728C75.6683 56.0132 76.92 54.9212 78.3112 53.797C79.7494 52.6698 81.0701 51.55 82.2734 50.4375C83.4768 49.325 84.4483 48.2741 85.1878 47.2849C85.9245 46.2488 86.1739 45.3374 85.9361 44.5508C85.8774 44.3659 85.7042 43.8581 85.4165 43.0275C85.1259 42.1499 84.8088 41.2268 84.4654 40.2583C84.1219 39.2897 83.8063 38.3901 83.5186 37.5595C83.2309 36.7288 83.0562 36.1976 82.9946 35.9657L82.8932 34.3455C83.4743 33.8377 84.0702 33.9419 84.6807 34.658C85.3383 35.3712 85.962 36.2987 86.5521 37.4404C87.1861 38.5322 87.7732 39.627 88.3134 40.7247C88.9005 41.8195 89.3907 42.496 89.784 42.7543C90.594 42.1378 91.4452 41.4245 92.3374 40.6144C93.2737 39.7543 94.1865 38.8957 95.0758 38.0386C95.9621 37.1345 96.8044 36.2804 97.6027 35.4761C98.3981 34.6248 99.0599 33.8998 99.5882 33.301C100.542 32.7227 101.21 32.4688 101.591 32.5392C102.017 32.5597 102.243 32.7813 102.269 33.204C102.296 33.6267 102.187 34.1521 101.944 34.7802C101.747 35.4054 101.504 36.0335 101.213 36.6646C100.92 37.2487 100.622 37.7624 100.319 38.2056C100.064 38.6459 99.9364 38.866 99.9364 38.866C97.5884 41.2759 95.8069 43.3204 94.5919 44.9993C93.3739 46.6314 92.5404 48.0036 92.0914 49.116C91.6894 50.2255 91.5794 51.1046 91.7614 51.7533C91.9434 52.4019 92.2839 52.9464 92.7829 53.3866C93.3259 53.777 93.9365 54.1159 94.6145 54.4035C95.2925 54.6911 95.8796 55.0316 96.3756 55.4249C96.9157 55.7682 97.2738 56.2173 97.45 56.772C97.6731 57.3238 97.5792 58.084 97.1684 59.0526C95.921 59.4607 94.9318 59.4754 94.2009 59.0968C93.4671 58.6713 92.8404 58.074 92.3209 57.3051C91.8013 56.5361 91.3478 55.6923 90.9603 54.7736C90.6197 53.852 90.1941 53.0771 89.6833 52.449C89.2166 51.7711 88.6017 51.3616 87.8385 51.2208C87.1194 51.0301 86.1464 51.3031 84.9196 52.0399C83.6927 52.7767 82.1475 54.0756 80.2838 55.9366C78.4641 57.7477 76.2218 60.3395 73.5569 63.7122C73.4102 63.6271 73.1122 63.3864 72.6631 62.9902C72.261 62.5911 72.0085 62.324 71.9058 62.189Z" fill="#65666A"/>
<path d="M94.3747 103.723C93.7875 101.12 93.7609 98.4343 94.2949 95.6665C94.7849 92.9485 102.51 73.2158 103.469 70.4685C104.382 67.724 105.318 64.9782 106.278 62.2308C107.24 59.5304 107.854 56.899 108.118 54.3366C108.112 54.2427 108.282 53.9492 108.628 53.4561C109.022 52.96 109.437 52.439 109.874 51.893C110.355 51.2972 110.769 50.7527 111.116 50.2595C111.506 49.7165 111.722 49.3966 111.763 49.2997C112.411 47.609 113.069 46.0592 113.735 44.6503C114.445 43.1915 114.97 41.7914 115.311 40.45C115.651 39.1087 115.758 37.8054 115.632 36.5404C115.503 35.2284 114.945 33.8489 113.959 32.402C113.859 32.3139 113.803 32.176 113.791 31.9881C113.78 31.8003 113.819 31.6799 113.91 31.6271C115.163 29.8043 116.645 28.25 118.357 26.9643C120.068 25.6786 121.911 24.6204 123.886 23.7896C125.861 22.9589 127.922 22.3585 130.067 21.9885C132.213 21.6186 134.347 21.4379 136.469 21.4466C138.348 22.8377 139.582 24.4813 140.172 26.3774C140.806 28.2236 140.953 30.1945 140.613 32.2902C140.316 34.336 139.622 36.4303 138.531 38.573C137.486 40.7128 136.244 42.7234 134.806 44.605C133.368 46.4865 131.824 48.186 130.175 49.7036C128.572 51.2182 127.043 52.3983 125.588 53.2437C124.267 53.9863 123.285 54.4956 122.642 54.7716C122.043 54.9976 121.44 55.1532 120.833 55.2384C120.225 55.3235 119.477 55.4175 118.587 55.5203C117.745 55.6202 116.442 55.8903 114.678 56.3307C113.888 56.5215 113.231 56.9398 112.705 57.5855C112.224 58.1814 111.819 58.8668 111.49 59.6417C111.206 60.3667 110.97 61.1122 110.782 61.8783C110.644 62.6884 110.496 63.3342 110.337 63.8155C109.621 65.9348 108.965 67.8852 108.37 69.6669C107.824 71.4926 100.298 90.2698 99.7937 91.9986C99.2449 93.7774 98.7226 95.6016 98.2267 97.4713C97.7308 99.341 97.2216 101.377 96.6993 103.578C96.6201 103.819 96.4675 104.017 96.2415 104.172C96.0184 104.375 95.7895 104.484 95.5547 104.498C95.2758 104.563 95.0381 104.531 94.8414 104.401C94.6007 104.322 94.4452 104.096 94.3747 103.723ZM115.254 53.1122C117.441 53.3997 119.523 53.1516 121.502 52.3678C123.527 51.581 125.389 50.4509 127.089 48.9773C128.785 47.4568 130.277 45.6898 131.566 43.6762C132.898 41.6127 133.99 39.47 134.841 37.248C135.692 35.0261 136.285 32.8203 136.619 30.6306C136.951 28.394 136.965 26.3659 136.663 24.5461C135.97 24.0237 135.154 23.7919 134.215 23.8506C133.32 23.8595 132.523 23.9329 131.824 24.0709C129.309 24.5583 127.354 25.3406 125.96 26.4179C124.563 27.4482 123.44 28.7207 122.592 30.2353C121.791 31.7469 121.122 33.486 120.585 35.4526C120.045 37.3722 119.374 39.465 118.573 41.731C118.406 42.0715 118.161 42.6762 117.838 43.545C117.512 44.3668 117.168 45.2606 116.804 46.2263C116.437 47.145 116.092 48.0388 115.769 48.9076C115.446 49.7764 115.225 50.3796 115.104 50.7172L115.254 53.1122Z" fill="#65666A"/>
<path d="M148.319 58.2569C146.895 57.3559 145.925 56.1672 145.409 54.6909C144.939 53.2116 144.791 51.5944 144.964 49.8391C145.134 48.037 145.512 46.1746 146.099 44.252C146.733 42.3265 147.418 40.4686 148.155 38.6781C148.938 36.8847 149.684 35.2351 150.391 33.7293C151.145 32.2206 151.728 30.9819 152.139 30.0133C152.262 29.7227 152.548 29.0212 152.997 27.9087C153.493 26.7934 154.007 25.5826 154.538 24.2764C155.069 22.9702 155.559 21.7609 156.008 20.6485C156.501 19.4861 156.809 18.7597 156.933 18.4691C157.059 18.2254 157.219 17.7676 157.412 17.0954C157.65 16.3733 157.908 15.6028 158.187 14.7839C158.466 13.965 158.771 13.1916 159.103 12.4636C159.478 11.6858 159.867 11.1193 160.269 10.7641C160.718 10.406 161.162 10.3311 161.599 10.5395C162.083 10.7449 162.574 11.4214 163.07 12.5691C162.911 13.0504 162.5 14.019 161.837 15.4749C161.221 16.9279 160.481 18.6714 159.618 20.7055C158.756 22.7396 157.789 24.9924 156.717 27.4638C155.693 29.9323 154.694 32.4229 153.72 34.9354C152.745 37.448 151.839 39.9091 150.999 42.3189C150.157 44.6818 149.467 46.8465 148.93 48.8131C148.437 50.7297 148.16 52.3265 148.099 53.6033C148.081 54.8302 148.363 55.5669 148.944 55.8134C149.622 56.101 150.476 56.189 151.506 56.0774C152.581 55.9159 153.675 55.7059 154.791 55.4476C155.906 55.1892 156.998 54.9323 158.066 54.6769C159.132 54.3745 160.065 54.2218 160.866 54.2188C161.081 54.6297 160.966 55.0612 160.523 55.5133C160.077 55.9183 159.442 56.3117 158.617 56.6933C157.789 57.028 156.819 57.348 155.707 57.6533C154.638 57.9087 153.591 58.1157 152.563 58.2743C151.583 58.4299 150.692 58.5092 149.891 58.5122C149.136 58.5122 148.613 58.4271 148.319 58.2569Z" fill="#65666A"/>
<path d="M172.974 56.7144C170.952 56.0395 169.632 54.9198 169.016 53.3554C168.446 51.7881 168.36 50.0255 168.756 48.0678C169.149 46.063 169.915 43.9878 171.054 41.8422C172.189 39.6496 173.478 37.636 174.919 35.8014C176.36 33.9669 177.818 32.4141 179.295 31.1431C180.815 29.8222 182.134 29.056 183.253 28.8446C186.141 28.2867 188.432 28.3556 190.125 29.0511C191.863 29.6967 193.083 30.7283 193.784 32.146C194.486 33.5636 194.757 35.2674 194.599 37.2575C194.438 39.2005 193.926 41.1891 193.063 43.2232C192.247 45.2544 191.121 47.2342 189.686 49.1627C188.298 51.0882 186.704 52.7438 184.905 54.1293C183.15 55.4649 181.253 56.4086 179.213 56.9606C177.17 57.4655 175.09 57.3835 172.974 56.7144ZM171.948 52.7476C172.418 54.2269 173.269 55.0223 174.502 55.1337C175.732 55.1982 177.121 54.8048 178.671 53.9536C180.265 53.0524 181.908 51.818 183.602 50.2506C185.292 48.6361 186.811 46.9146 188.158 45.0859C189.552 43.2543 190.665 41.4403 191.495 39.6439C192.37 37.7977 192.742 36.2185 192.613 34.9065C192.531 33.5916 191.835 32.6451 190.526 32.0669C189.261 31.4389 187.186 31.4273 184.301 32.0321C183.681 32.6837 182.883 33.488 181.906 34.4449C180.926 35.3549 179.904 36.3617 178.842 37.4654C177.826 38.5661 176.817 39.7608 175.813 41.0494C174.806 42.291 173.943 43.5708 173.224 44.8887C172.505 46.2066 171.999 47.5348 171.706 48.8733C171.459 50.2088 171.54 51.5002 171.948 52.7476Z" fill="#65666A"/>
<path d="M199.742 55.0397C199.646 54.9986 199.612 54.4585 199.641 53.4195C199.714 52.3306 199.819 50.9804 199.953 49.369C200.088 47.7576 200.283 45.9774 200.539 44.0285C200.794 42.0795 201.078 40.223 201.392 38.459C201.703 36.648 202.053 35.0703 202.44 33.726C202.871 32.3318 203.306 31.3617 203.743 30.8157C204.051 30.4664 204.38 30.4459 204.729 30.754C205.076 31.0152 205.428 31.3704 205.786 31.8194C206.141 32.2215 206.495 32.6001 206.847 32.9552C207.196 33.2634 207.55 33.2649 207.908 32.9596C209.108 31.0458 210.432 29.2186 211.879 27.478C213.37 25.6874 215.04 24.1214 216.889 22.7799C217.068 22.6273 217.571 22.3837 218.399 22.049C219.224 21.6674 220.167 21.3019 221.23 20.9525C222.29 20.5562 223.377 20.2289 224.492 19.9705C225.652 19.6623 226.632 19.5066 227.433 19.5037C228.279 19.4508 228.855 19.6269 229.164 20.0319C229.516 20.387 229.416 21.0533 228.864 22.0307C226.05 22.254 223.471 23.2403 221.129 24.9898C218.787 26.7393 216.656 28.8528 214.737 31.3301C212.817 33.8075 211.099 36.4845 209.582 39.361C208.061 42.1906 206.741 44.8191 205.62 47.2465C204.545 49.671 203.634 51.6846 202.886 53.2872C202.184 54.8869 201.646 55.6985 201.27 55.722C201.223 55.725 201.006 55.6443 200.619 55.4799C200.228 55.2686 199.936 55.1219 199.742 55.0397Z" fill="#65666A"/>
<path d="M237.923 52.651C236.484 52.2695 235.36 51.6327 234.55 50.7404C233.784 49.7983 233.247 48.7476 232.938 47.5882C232.63 46.4288 232.507 45.2108 232.568 43.934C232.674 42.6073 232.878 41.3452 233.18 40.1476C234.495 38.5567 235.961 36.7441 237.578 34.71C239.239 32.6259 240.997 30.583 242.852 28.5811C244.707 26.5792 246.641 24.7138 248.655 22.9849C250.712 21.206 252.818 19.8249 254.972 18.8415C255.703 18.4658 256.292 18.4525 256.738 18.8018C257.228 19.1011 257.59 19.6206 257.825 20.3603C258.06 21.0999 258.185 21.9643 258.2 22.9534C258.261 23.9397 258.251 24.9068 258.169 25.8548C258.087 26.8029 257.952 27.66 257.764 28.426C257.576 29.1921 257.374 29.7234 257.157 30.0199C256.634 30.7126 255.579 31.5565 253.991 32.5516C252.45 33.5438 250.728 34.6416 248.823 35.8452C246.915 37.0017 245.01 38.2053 243.108 39.4558C241.206 40.7063 239.657 41.9347 238.459 43.1411C237.259 44.3006 236.575 45.4277 236.408 46.5225C236.24 47.6174 236.96 48.5624 238.565 49.3577C240.174 49.4457 242.095 49.2548 244.328 48.785C246.606 48.2654 248.901 47.6503 251.214 46.9399C253.571 46.1795 255.834 45.425 258.003 44.6764C260.169 43.8809 261.945 43.2512 263.33 42.7873L264.224 43.5093C263.276 44.9359 261.663 46.2861 259.386 47.5601C257.108 48.8341 254.631 49.932 251.954 50.8538C249.274 51.7287 246.65 52.3643 244.082 52.7607C241.511 53.1101 239.458 53.0736 237.923 52.651ZM253.075 24.6884C253.025 24.6444 252.686 24.8778 252.058 25.3885C251.427 25.8523 250.642 26.4908 249.703 27.3039C248.808 28.0671 247.824 28.93 246.753 29.8928C245.726 30.8057 244.766 31.6673 243.874 32.4774C243.029 33.2846 242.318 33.9891 241.743 34.5909C241.165 35.1456 240.923 35.4201 241.017 35.4142C241.777 35.5081 242.734 35.3539 243.887 34.9517C245.085 34.4997 246.297 33.9052 247.524 33.1684C248.798 32.4287 249.996 31.6229 251.121 30.7511C252.242 29.8323 253.106 28.9532 253.714 28.1137C254.368 27.2713 254.676 26.5448 254.638 25.9343C254.647 25.3209 254.126 24.9056 253.075 24.6884Z" fill="#65666A"/>
<path d="M306.041 48.3893C304.019 47.7143 302.699 46.5947 302.083 45.0303C301.513 43.4629 301.427 41.7004 301.823 39.7426C302.216 37.7379 302.982 35.6627 304.121 33.5171C305.256 31.3244 306.545 29.3108 307.986 27.4763C309.427 25.6417 310.885 24.089 312.362 22.8179C313.882 21.497 315.201 20.7309 316.32 20.5195C319.208 19.9616 321.499 20.0305 323.192 20.726C324.93 21.3716 326.15 22.4032 326.851 23.8209C327.553 25.2385 327.824 26.9423 327.666 28.9323C327.505 30.8754 326.993 32.864 326.13 34.8981C325.314 36.9293 324.188 38.9091 322.753 40.8376C321.365 42.7631 319.771 44.4186 317.972 45.8041C316.217 47.1397 314.32 48.0835 312.28 48.6354C310.237 49.1404 308.157 49.0584 306.041 48.3893ZM305.015 44.4225C305.485 45.9018 306.336 46.6972 307.569 46.8086C308.799 46.8731 310.188 46.4797 311.738 45.6284C313.332 44.7272 314.975 43.4929 316.669 41.9254C318.359 40.311 319.878 38.5895 321.225 36.7608C322.619 34.9292 323.732 33.1152 324.562 31.3188C325.437 29.4726 325.809 27.8934 325.68 26.5814C325.598 25.2665 324.902 24.3199 323.593 23.7418C322.328 23.1138 320.253 23.1022 317.368 23.707C316.748 24.3586 315.95 25.1629 314.973 26.1198C313.993 27.0298 312.971 28.0366 311.909 29.1403C310.893 30.241 309.884 31.4357 308.88 32.7243C307.873 33.9659 307.01 35.2457 306.291 36.5636C305.572 37.8815 305.066 39.2097 304.773 40.5481C304.526 41.8836 304.607 43.1751 305.015 44.4225Z" fill="#65666A"/>
<path d="M361.057 44.9473C359.757 44.51 358.705 43.8923 357.9 43.094C357.096 42.2957 356.449 41.3697 355.959 40.316C355.468 39.2623 355.069 38.1558 354.761 36.9964C354.45 35.7901 354.162 34.5823 353.898 33.373C353.457 33.1177 352.724 33.4465 351.696 34.3594C350.666 35.2253 349.485 36.3128 348.152 37.622C346.82 38.9312 345.373 40.2946 343.812 41.7124C342.294 43.0803 340.803 44.1165 339.339 44.821C337.874 45.5255 336.496 45.7296 335.204 45.4332C333.96 45.1339 332.921 43.9731 332.087 41.9509C331.808 41.2611 331.816 40.2471 332.109 38.9086C332.446 37.5203 332.964 36.0028 333.663 34.3561C334.361 32.7094 335.174 31.0085 336.102 29.2532C337.073 27.448 338.006 25.7867 338.901 24.2692C339.841 22.7017 340.7 21.375 341.481 20.289C342.306 19.153 342.943 18.406 343.392 18.0479C344.504 18.4969 345.024 19.2658 344.951 20.3548C344.921 21.3938 344.573 22.6178 343.907 24.0267C343.288 25.4327 342.44 26.9473 341.363 28.5705C340.333 30.1907 339.35 31.808 338.413 33.4224C337.521 34.9869 336.814 36.4927 336.292 37.9397C335.769 39.3868 335.683 40.6416 336.032 41.7041C337.092 42.0621 338.346 41.7714 339.796 40.8321C341.29 39.8429 342.857 38.519 344.498 36.8606C346.186 35.1992 347.884 33.325 349.592 31.238C351.344 29.1011 352.961 27.0669 354.443 25.1355C355.922 23.1571 357.228 21.4253 358.361 19.9401C359.494 18.4548 360.328 17.4598 360.862 16.9549C361.877 17.3628 362.419 18.1068 362.486 19.1869C362.551 20.2201 362.344 21.4353 361.866 22.8324C361.434 24.2267 360.87 25.7471 360.171 27.3937C359.517 28.9905 358.956 30.5814 358.49 32.1664C358.023 33.7514 357.787 35.2513 357.781 36.666C357.775 38.0807 358.227 39.2783 359.137 40.2585L361.709 42.9264L368.823 42.4813C369.152 42.4607 369.231 42.5972 369.061 42.8907C368.891 43.1843 368.628 43.5071 368.273 43.8594C367.965 44.2087 367.633 44.5594 367.278 44.9117C366.92 45.217 366.718 45.3711 366.671 45.374C365.464 45.6852 364.48 45.7704 363.716 45.6296C362.956 45.5357 362.07 45.3083 361.057 44.9473Z" fill="#65666A"/>
<path d="M373.385 44.176C373.288 44.135 373.254 43.5949 373.283 42.5559C373.357 41.4669 373.461 40.1167 373.596 38.5053C373.731 36.8939 373.926 35.1138 374.181 33.1648C374.436 31.2159 374.721 29.3594 375.035 27.5953C375.346 25.7843 375.695 24.2067 376.082 22.8624C376.514 21.4681 376.948 20.498 377.385 19.9521C377.693 19.6028 378.022 19.5822 378.371 19.8904C378.718 20.1516 379.07 20.5067 379.428 20.9558C379.783 21.3579 380.137 21.7365 380.489 22.0916C380.839 22.3998 381.192 22.4012 381.55 22.0959C382.751 20.1822 384.074 18.3549 385.521 16.6143C387.012 14.8238 388.682 13.2578 390.531 11.9163C390.71 11.7637 391.214 11.52 392.041 11.1854C392.866 10.8037 393.81 10.4383 394.872 10.0889C395.932 9.69259 397.019 9.36526 398.135 9.10689C399.294 8.79863 400.274 8.64301 401.076 8.64002C401.921 8.58714 402.498 8.76321 402.806 9.16824C403.158 9.52337 403.058 10.1897 402.507 11.1671C399.692 11.3903 397.113 12.3767 394.771 14.1262C392.429 15.8757 390.298 17.9891 388.379 20.4665C386.459 22.9439 384.741 25.6208 383.224 28.4974C381.704 31.3269 380.383 33.9554 379.262 36.3829C378.188 38.8074 377.276 40.8209 376.528 42.4236C375.827 44.0233 375.288 44.8349 374.913 44.8584C374.866 44.8613 374.648 44.7806 374.261 44.6163C373.87 44.405 373.578 44.2582 373.385 44.176Z" fill="#65666A"/>
<mask id="path-5-outside-1_21_241" maskUnits="userSpaceOnUse" x="667.002" y="28.8961" width="584.435" height="94.5404" fill="black">
<rect fill="white" x="667.002" y="28.8961" width="584.435" height="94.5404"/>
<path d="M700.283 119.303C696.465 119.558 692.861 119.166 689.471 118.129C686.125 117.042 683.14 115.417 680.518 113.253C677.895 111.089 675.781 108.494 674.176 105.467C672.615 102.391 671.712 99.0134 671.467 95.3349C671.219 91.6098 671.666 88.1424 672.809 84.9327C673.998 81.72 675.728 78.8922 677.997 76.4493C680.313 74.0034 683.059 72.0433 686.235 70.5691C689.407 69.0483 692.903 68.1608 696.721 67.9066C700.586 67.6493 704.165 68.019 707.458 69.0157C710.752 70.0125 713.657 71.5027 716.175 73.4865L707.508 83.4643C706.31 82.3281 704.873 81.465 703.197 80.875C701.567 80.282 699.681 80.0568 697.539 80.1994C695.677 80.3234 693.974 80.7408 692.431 81.4515C690.935 82.1591 689.667 83.1322 688.627 84.3707C687.587 85.6092 686.797 87.0883 686.256 88.808C685.759 90.478 685.579 92.3374 685.716 94.3862C685.855 96.4816 686.283 98.3472 687 99.9832C687.761 101.57 688.738 102.908 689.933 103.997C691.128 105.087 692.516 105.907 694.096 106.456C695.719 106.956 697.462 107.144 699.325 107.02C701.42 106.88 703.261 106.431 704.848 105.67C706.48 104.907 707.86 103.856 708.987 102.518L718.97 111.254C716.644 113.561 713.986 115.421 710.993 116.837C707.997 118.205 704.427 119.028 700.283 119.303ZM733.246 116.267L748.863 65.2768L763.111 64.3282L785.141 112.812L770.613 113.779L753.9 72.448L758.929 72.1132L747.494 115.318L733.246 116.267ZM744.98 107.067L744.255 96.1712L772.053 94.3204L772.779 105.216L744.98 107.067ZM810.059 111.153L806.748 61.4228L820.717 60.4928L824.028 110.223L810.059 111.153ZM792.661 74.2871L791.871 62.4134L835.664 59.4976L836.454 71.3713L792.661 74.2871ZM858.195 107.948L854.884 58.2179L868.853 57.2879L872.164 107.018L858.195 107.948ZM869.51 107.194L868.738 95.6002L895.419 93.8237L896.191 105.418L869.51 107.194ZM868.198 87.4981L867.445 76.1831L891.542 74.5788L892.295 85.8937L868.198 87.4981ZM866.971 69.0589L866.199 57.4646L892.46 55.7161L893.232 67.3104L866.971 69.0589ZM940.525 103.308C936.66 103.565 933.033 103.176 929.643 102.138C926.297 101.052 923.312 99.4264 920.69 97.2625C918.113 95.0955 916.046 92.4971 914.488 89.4673C912.93 86.4374 912.028 83.0832 911.784 79.4047C911.536 75.6796 912.006 72.2107 913.195 68.9979C914.431 65.7821 916.23 62.9496 918.593 60.5006C920.999 58.0019 923.836 56.0123 927.105 54.5319C930.371 53.0049 933.913 52.1143 937.731 51.8601C942.341 51.5532 946.514 52.0704 950.252 53.4117C954.036 54.75 957.158 56.6935 959.62 59.2423L950.818 69.2992C948.962 67.4116 947.07 66.041 945.143 65.1871C943.215 64.3333 940.947 63.9932 938.34 64.1668C935.872 64.3311 933.674 65.0387 931.746 66.2895C929.815 67.4938 928.311 69.1374 927.234 71.2202C926.203 73.2999 925.778 75.6902 925.958 78.3908C926.137 81.0915 926.831 83.4306 928.038 85.4081C929.289 87.3359 930.93 88.7935 932.96 89.7808C934.99 90.7682 937.309 91.175 939.916 91.0014C942.431 90.834 944.517 90.204 946.174 89.1115C947.832 88.0189 949.043 86.5352 949.807 84.6603C950.617 82.7823 950.94 80.6094 950.776 78.1415L960.749 83.581L937.584 84.4218L936.84 73.2465L964.429 71.4097L964.568 73.505C964.965 79.4652 964.209 84.6134 962.299 88.9499C960.436 93.2832 957.622 96.6743 953.856 99.1232C950.137 101.569 945.694 102.964 940.525 103.308ZM1011.05 98.7529C1007.14 99.0133 1003.49 98.6017 1000.09 97.518C996.747 96.4313 993.763 94.8059 991.14 92.6421C988.564 90.4751 986.495 87.8534 984.934 84.777C983.372 81.7006 982.469 78.3231 982.224 74.6446C981.976 70.9195 982.401 67.4537 983.497 64.2471C984.639 61.0374 986.344 58.1879 988.61 55.6985C990.876 53.2091 993.597 51.2273 996.773 49.7531C999.992 48.2292 1003.56 47.337 1007.47 47.0766C1011.38 46.8162 1015.01 47.2294 1018.36 48.3161C1021.74 49.3532 1024.73 50.9553 1027.3 53.1222C1029.88 55.2892 1031.93 57.9125 1033.44 60.992C1035 64.0218 1035.9 67.3993 1036.15 71.1244C1036.39 74.8029 1035.95 78.2703 1034.81 81.5265C1033.71 84.7331 1032.03 87.6043 1029.77 90.1403C1027.5 92.6297 1024.78 94.6348 1021.61 96.1556C1018.43 97.6298 1014.91 98.4956 1011.05 98.7529ZM1010.09 86.4694C1012.7 86.2958 1014.92 85.5867 1016.76 84.342C1018.59 83.0974 1019.95 81.4166 1020.84 79.2996C1021.73 77.1826 1022.08 74.7505 1021.9 72.0032C1021.76 69.9544 1021.34 68.1353 1020.62 66.5459C1019.95 64.9068 1019.02 63.5424 1017.82 62.4527C1016.63 61.3165 1015.21 60.4984 1013.59 59.9985C1012.01 59.4489 1010.24 59.2392 1008.29 59.3694C1005.68 59.543 1003.46 60.2521 1001.62 61.4968C999.786 62.6948 998.423 64.3524 997.535 66.4694C996.644 68.5398 996.29 70.9487 996.473 73.6959C996.612 75.7913 997.017 77.6585 997.688 79.2976C998.405 80.9336 999.362 82.3197 1000.56 83.4559C1001.76 84.5456 1003.14 85.3653 1004.72 85.9148C1006.35 86.4148 1008.14 86.5996 1010.09 86.4694ZM1067.52 74.0868L1066.88 64.4482L1075.33 63.8855C1077.24 63.7584 1078.65 63.1966 1079.57 62.2003C1080.53 61.2008 1080.96 59.9327 1080.86 58.3961C1080.76 56.8596 1080.16 55.6597 1079.08 54.7967C1078.04 53.9305 1076.56 53.561 1074.65 53.6881L1066.2 54.2508L1065.53 44.193L1076.22 43.4815C1079.66 43.2521 1082.73 43.6792 1085.42 44.7628C1088.11 45.8464 1090.28 47.4561 1091.92 49.592C1093.56 51.7278 1094.48 54.2858 1094.67 57.2658C1094.87 60.2459 1094.28 62.9046 1092.89 65.242C1091.55 67.5762 1089.57 69.4619 1086.95 70.8989C1084.34 72.336 1081.19 73.1769 1077.51 73.4218L1067.52 74.0868ZM1057.53 94.6763L1054.22 44.9464L1068.18 44.0163L1071.5 93.7462L1057.53 94.6763ZM1084.35 92.8905L1069.38 72.5597L1081.77 68.9987L1100.2 91.8349L1084.35 92.8905ZM1117.67 90.6717L1114.36 40.9418L1128.33 40.0118L1131.64 89.7417L1117.67 90.6717ZM1153.88 88.2612L1150.57 38.5313L1164.54 37.6012L1167.85 87.3311L1153.88 88.2612ZM1165.19 87.5078L1164.42 75.9135L1191.1 74.1371L1191.87 85.7314L1165.19 87.5078ZM1163.88 67.8115L1163.13 56.4965L1187.22 54.8921L1187.98 66.2071L1163.88 67.8115ZM1162.65 49.3723L1161.88 37.7779L1188.14 36.0294L1188.92 47.6238L1162.65 49.3723ZM1227.35 84.2114C1223.11 84.4935 1219.37 84.1347 1216.12 83.1348C1212.92 82.0853 1209.9 80.2986 1207.07 77.7746L1215.21 68.4627C1217.15 70.0646 1219.14 71.2646 1221.21 72.0625C1223.27 72.8139 1225.44 73.1137 1227.72 72.9618C1229.63 72.8346 1231.06 72.4592 1232 71.8353C1232.93 71.1649 1233.37 70.3174 1233.3 69.293C1233.23 68.2686 1232.76 67.4584 1231.88 66.8623C1230.99 66.2197 1229.83 65.6887 1228.4 65.2696C1227.01 64.8007 1225.46 64.3427 1223.75 63.8955C1222.08 63.4453 1220.41 62.8786 1218.73 62.1955C1217.04 61.5125 1215.47 60.6587 1214 59.6342C1212.57 58.56 1211.38 57.2126 1210.43 55.5922C1209.48 53.9251 1208.92 51.8576 1208.75 49.3898C1208.54 46.1769 1209.12 43.3552 1210.5 40.9247C1211.89 38.4942 1213.93 36.5807 1216.65 35.184C1219.36 33.7408 1222.6 32.8936 1226.37 32.6425C1230.09 32.3945 1233.58 32.7704 1236.83 33.7702C1240.12 34.7204 1242.88 36.22 1245.12 38.2689L1236.91 47.5855C1235.27 46.1978 1233.66 45.2059 1232.08 44.6097C1230.49 43.967 1228.79 43.7061 1226.97 43.827C1225.53 43.9231 1224.38 44.2335 1223.53 44.758C1222.72 45.2794 1222.35 46.0058 1222.41 46.9371C1222.48 47.9149 1222.95 48.7019 1223.83 49.2979C1224.71 49.8475 1225.84 50.3334 1227.22 50.7557C1228.66 51.1749 1230.2 51.6096 1231.87 52.0598C1233.59 52.507 1235.28 53.0721 1236.97 53.7552C1238.64 54.3917 1240.2 55.2703 1241.63 56.3911C1243.11 57.4622 1244.32 58.8545 1245.28 60.5681C1246.23 62.2817 1246.79 64.3957 1246.96 66.9102C1247.3 71.9856 1245.75 76.0411 1242.3 79.0768C1238.9 82.0627 1233.91 83.7743 1227.35 84.2114Z"/>
</mask>
<path d="M689.471 118.129L688.853 120.031L688.87 120.037L688.886 120.042L689.471 118.129ZM680.518 113.253L679.245 114.796L679.245 114.796L680.518 113.253ZM674.176 105.467L672.393 106.372L672.401 106.388L672.409 106.404L674.176 105.467ZM672.809 84.9327L670.933 84.2385L670.929 84.2502L670.925 84.262L672.809 84.9327ZM677.997 76.4493L676.545 75.0742L676.538 75.0811L676.532 75.0881L677.997 76.4493ZM686.235 70.5691L687.077 72.3832L687.088 72.378L687.099 72.3726L686.235 70.5691ZM707.458 69.0157L706.879 70.93L706.879 70.93L707.458 69.0157ZM716.175 73.4865L717.684 74.798L719.06 73.2142L717.412 71.9157L716.175 73.4865ZM707.508 83.4643L706.132 84.9155L707.648 86.3533L709.018 84.7758L707.508 83.4643ZM703.197 80.875L702.513 82.7544L702.523 82.7581L702.533 82.7616L703.197 80.875ZM692.431 81.4515L691.594 79.635L691.585 79.6392L691.576 79.6435L692.431 81.4515ZM688.627 84.3707L690.158 85.6568L690.158 85.6568L688.627 84.3707ZM686.256 88.808L684.348 88.2085L684.344 88.2231L684.339 88.2377L686.256 88.808ZM687 99.9832L685.168 100.786L685.182 100.817L685.197 100.848L687 99.9832ZM689.933 103.997L691.281 102.519L691.281 102.519L689.933 103.997ZM694.096 106.456L693.439 108.345L693.473 108.357L693.507 108.368L694.096 106.456ZM704.848 105.67L704 103.858L703.992 103.862L703.983 103.867L704.848 105.67ZM708.987 102.518L710.304 101.013L708.771 99.6709L707.458 101.23L708.987 102.518ZM718.97 111.254L720.378 112.674L721.902 111.163L720.287 109.749L718.97 111.254ZM710.993 116.837L711.824 118.656L711.836 118.65L711.848 118.645L710.993 116.837ZM700.15 117.308C696.555 117.547 693.196 117.177 690.056 116.217L688.886 120.042C692.526 121.155 696.375 121.568 700.416 121.299L700.15 117.308ZM690.089 116.227C686.973 115.215 684.213 113.709 681.79 111.71L679.245 114.796C682.068 117.125 685.277 118.87 688.853 120.031L690.089 116.227ZM681.79 111.71C679.372 109.715 677.426 107.326 675.943 104.53L672.409 106.404C674.136 109.662 676.417 112.463 679.245 114.796L681.79 111.71ZM675.96 104.562C674.529 101.742 673.691 98.6302 673.463 95.202L669.472 95.4677C669.733 99.3966 670.701 103.039 672.393 106.372L675.96 104.562ZM673.463 95.202C673.231 91.7233 673.651 88.532 674.693 85.6035L670.925 84.262C669.682 87.7528 669.207 91.4963 669.472 95.4677L673.463 95.202ZM674.685 85.627C675.785 82.6545 677.377 80.055 679.462 77.8106L676.532 75.0881C674.078 77.7294 672.212 80.7854 670.933 84.2385L674.685 85.627ZM679.449 77.8244C681.585 75.5693 684.121 73.7552 687.077 72.3832L685.392 68.755C681.997 70.3314 679.041 72.4375 676.545 75.0742L679.449 77.8244ZM687.099 72.3726C690.023 70.9711 693.267 70.141 696.854 69.9022L696.588 65.911C692.538 66.1806 688.792 67.1255 685.37 68.7656L687.099 72.3726ZM696.854 69.9022C700.508 69.6589 703.843 70.0112 706.879 70.93L708.038 67.1015C704.486 66.0267 700.663 65.6397 696.588 65.911L696.854 69.9022ZM706.879 70.93C709.951 71.8597 712.629 73.2392 714.937 75.0574L717.412 71.9157C714.685 69.7662 711.552 68.1652 708.038 67.1015L706.879 70.93ZM714.665 72.1751L705.998 82.1528L709.018 84.7758L717.684 74.798L714.665 72.1751ZM708.884 82.0131C707.467 80.6688 705.782 79.6646 703.861 78.9885L702.533 82.7616C703.964 83.2653 705.153 83.9873 706.132 84.9155L708.884 82.0131ZM703.881 78.9956C701.935 78.2877 699.762 78.047 697.406 78.2038L697.672 82.195C699.601 82.0665 701.199 82.2762 702.513 82.7544L703.881 78.9956ZM697.406 78.2038C695.324 78.3424 693.38 78.8124 691.594 79.635L693.268 83.268C694.568 82.6691 696.029 82.3043 697.672 82.195L697.406 78.2038ZM691.576 79.6435C689.826 80.4713 688.325 81.6201 687.095 83.0845L690.158 85.6568C691.009 84.6443 692.044 83.8469 693.286 83.2595L691.576 79.6435ZM687.095 83.0845C685.867 84.5468 684.958 86.2662 684.348 88.2085L688.164 89.4074C688.635 87.9104 689.306 86.6716 690.158 85.6568L687.095 83.0845ZM684.339 88.2377C683.764 90.1722 683.571 92.2745 683.72 94.5191L687.711 94.2533C687.588 92.4003 687.755 90.7838 688.173 89.3782L684.339 88.2377ZM683.72 94.5191C683.872 96.8058 684.344 98.9042 685.168 100.786L688.832 99.1805C688.223 97.7902 687.838 96.1573 687.711 94.2533L683.72 94.5191ZM685.197 100.848C686.059 102.645 687.185 104.197 688.586 105.475L691.281 102.519C690.292 101.618 689.463 100.494 688.804 99.1187L685.197 100.848ZM688.586 105.475C689.988 106.753 691.612 107.71 693.439 108.345L694.753 104.567C693.42 104.103 692.269 103.42 691.281 102.519L688.586 105.475ZM693.507 108.368C695.386 108.946 697.376 109.154 699.458 109.016L699.192 105.024C697.549 105.134 696.053 104.966 694.685 104.545L693.507 108.368ZM699.458 109.016C701.759 108.862 703.856 108.363 705.712 107.474L703.983 103.867C702.666 104.498 701.082 104.899 699.192 105.024L699.458 109.016ZM705.695 107.482C707.582 106.599 709.197 105.373 710.517 103.807L707.458 101.23C706.523 102.339 705.379 103.214 704 103.858L705.695 107.482ZM707.67 104.023L717.653 112.759L720.287 109.749L710.304 101.013L707.67 104.023ZM717.561 109.834C715.399 111.979 712.928 113.709 710.138 115.029L711.848 118.645C715.043 117.133 717.89 115.142 720.378 112.674L717.561 109.834ZM710.162 115.017C707.435 116.263 704.113 117.044 700.15 117.308L700.416 121.299C704.741 121.011 708.559 120.147 711.824 118.656L710.162 115.017ZM733.246 116.267L731.333 115.681L730.484 118.455L733.379 118.263L733.246 116.267ZM748.863 65.2768L748.73 63.2813L747.354 63.3728L746.95 64.6911L748.863 65.2768ZM763.111 64.3282L764.932 63.5008L764.359 62.2406L762.978 62.3326L763.111 64.3282ZM785.141 112.812L785.274 114.807L788.157 114.615L786.962 111.984L785.141 112.812ZM770.613 113.779L768.759 114.529L769.301 115.871L770.746 115.775L770.613 113.779ZM753.9 72.448L753.767 70.4524L751.01 70.636L752.046 73.1978L753.9 72.448ZM758.929 72.1132L760.863 72.6249L761.575 69.9326L758.796 70.1176L758.929 72.1132ZM747.494 115.318L747.627 117.314L749.06 117.218L749.428 115.83L747.494 115.318ZM744.98 107.067L742.985 107.2L743.118 109.196L745.113 109.063L744.98 107.067ZM744.255 96.1712L744.122 94.1756L742.127 94.3085L742.259 96.3041L744.255 96.1712ZM772.053 94.3204L774.049 94.1875L773.916 92.1919L771.921 92.3248L772.053 94.3204ZM772.779 105.216L772.912 107.212L774.907 107.079L774.774 105.083L772.779 105.216ZM735.158 116.853L750.775 65.8625L746.95 64.6911L731.333 115.681L735.158 116.853ZM748.996 67.2724L763.244 66.3237L762.978 62.3326L748.73 63.2813L748.996 67.2724ZM761.29 65.1555L783.32 113.639L786.962 111.984L764.932 63.5008L761.29 65.1555ZM785.008 110.816L770.48 111.783L770.746 115.775L785.274 114.807L785.008 110.816ZM772.467 113.029L755.754 71.6983L752.046 73.1978L768.759 114.529L772.467 113.029ZM754.033 74.4436L759.062 74.1088L758.796 70.1176L753.767 70.4524L754.033 74.4436ZM756.996 71.6015L745.561 114.807L749.428 115.83L760.863 72.6249L756.996 71.6015ZM747.361 113.323L733.113 114.271L733.379 118.263L747.627 117.314L747.361 113.323ZM746.976 106.934L746.251 96.0383L742.259 96.3041L742.985 107.2L746.976 106.934ZM744.388 98.1668L772.186 96.3159L771.921 92.3248L744.122 94.1756L744.388 98.1668ZM770.058 94.4532L770.783 105.349L774.774 105.083L774.049 94.1875L770.058 94.4532ZM772.646 103.221L744.848 105.071L745.113 109.063L772.912 107.212L772.646 103.221ZM810.059 111.153L808.063 111.286L808.196 113.281L810.192 113.148L810.059 111.153ZM806.748 61.4228L806.615 59.4273L804.619 59.5601L804.752 61.5557L806.748 61.4228ZM820.717 60.4928L822.712 60.3599L822.579 58.3643L820.584 58.4972L820.717 60.4928ZM824.028 110.223L824.161 112.218L826.156 112.085L826.023 110.09L824.028 110.223ZM792.661 74.2871L790.666 74.4199L790.798 76.4155L792.794 76.2827L792.661 74.2871ZM791.871 62.4134L791.738 60.4178L789.742 60.5506L789.875 62.5462L791.871 62.4134ZM835.664 59.4976L837.659 59.3647L837.526 57.3692L835.531 57.502L835.664 59.4976ZM836.454 71.3713L836.587 73.3669L838.583 73.234L838.45 71.2385L836.454 71.3713ZM812.054 111.02L808.743 61.29L804.752 61.5557L808.063 111.286L812.054 111.02ZM806.88 63.4184L820.85 62.4884L820.584 58.4972L806.615 59.4273L806.88 63.4184ZM818.721 60.6256L822.032 110.356L826.023 110.09L822.712 60.3599L818.721 60.6256ZM823.895 108.227L809.926 109.157L810.192 113.148L824.161 112.218L823.895 108.227ZM794.657 74.1542L793.866 62.2805L789.875 62.5462L790.666 74.4199L794.657 74.1542ZM792.003 64.4089L835.796 61.4932L835.531 57.502L791.738 60.4178L792.003 64.4089ZM833.668 59.6305L834.459 71.5042L838.45 71.2385L837.659 59.3647L833.668 59.6305ZM836.321 69.3757L792.528 72.2915L792.794 76.2827L836.587 73.3669L836.321 69.3757ZM858.195 107.948L856.199 108.081L856.332 110.076L858.328 109.943L858.195 107.948ZM854.884 58.2179L854.751 56.2224L852.755 56.3552L852.888 58.3508L854.884 58.2179ZM868.853 57.2879L870.848 57.155L870.715 55.1594L868.72 55.2923L868.853 57.2879ZM872.164 107.018L872.297 109.013L874.292 108.88L874.159 106.885L872.164 107.018ZM869.51 107.194L867.514 107.327L867.647 109.323L869.642 109.19L869.51 107.194ZM868.738 95.6002L868.605 93.6046L866.609 93.7374L866.742 95.733L868.738 95.6002ZM895.419 93.8237L897.414 93.6909L897.281 91.6953L895.286 91.8282L895.419 93.8237ZM896.191 105.418L896.323 107.414L898.319 107.281L898.186 105.285L896.191 105.418ZM868.198 87.4981L866.203 87.631L866.335 89.6265L868.331 89.4937L868.198 87.4981ZM867.445 76.1831L867.312 74.1876L865.316 74.3204L865.449 76.316L867.445 76.1831ZM891.542 74.5788L893.537 74.4459L893.404 72.4503L891.409 72.5832L891.542 74.5788ZM892.295 85.8937L892.428 87.8893L894.423 87.7565L894.29 85.7609L892.295 85.8937ZM866.971 69.0589L864.975 69.1918L865.108 71.1874L867.103 71.0545L866.971 69.0589ZM866.199 57.4646L866.066 55.469L864.07 55.6019L864.203 57.5975L866.199 57.4646ZM892.46 55.7161L894.456 55.5832L894.323 53.5876L892.328 53.7205L892.46 55.7161ZM893.232 67.3104L893.365 69.306L895.361 69.1731L895.228 67.1775L893.232 67.3104ZM860.19 107.815L856.879 58.0851L852.888 58.3508L856.199 108.081L860.19 107.815ZM855.016 60.2135L868.986 59.2835L868.72 55.2923L854.751 56.2224L855.016 60.2135ZM866.857 57.4207L870.168 107.151L874.159 106.885L870.848 57.155L866.857 57.4207ZM872.031 105.022L858.062 105.952L858.328 109.943L872.297 109.013L872.031 105.022ZM871.505 107.062L870.733 95.4673L866.742 95.733L867.514 107.327L871.505 107.062ZM868.871 97.5957L895.551 95.8193L895.286 91.8282L868.605 93.6046L868.871 97.5957ZM893.423 93.9566L894.195 105.551L898.186 105.285L897.414 93.6909L893.423 93.9566ZM896.058 103.422L869.377 105.199L869.642 109.19L896.323 107.414L896.058 103.422ZM870.194 87.3652L869.44 76.0503L865.449 76.316L866.203 87.631L870.194 87.3652ZM867.578 78.1787L891.674 76.5744L891.409 72.5832L867.312 74.1876L867.578 78.1787ZM889.546 74.7117L890.299 86.0266L894.29 85.7609L893.537 74.4459L889.546 74.7117ZM892.162 83.8982L868.065 85.5025L868.331 89.4937L892.428 87.8893L892.162 83.8982ZM868.966 68.9261L868.194 57.3317L864.203 57.5975L864.975 69.1918L868.966 68.9261ZM866.331 59.4602L892.593 57.7117L892.328 53.7205L866.066 55.469L866.331 59.4602ZM890.465 55.8489L891.237 67.4433L895.228 67.1775L894.456 55.5832L890.465 55.8489ZM893.1 65.3148L866.838 67.0633L867.103 71.0545L893.365 69.306L893.1 65.3148ZM929.643 102.138L929.025 104.041L929.042 104.046L929.058 104.051L929.643 102.138ZM920.69 97.2625L919.402 98.7931L919.409 98.7992L919.417 98.8053L920.69 97.2625ZM913.195 68.9979L911.328 68.2805L911.324 68.2921L911.32 68.3037L913.195 68.9979ZM918.593 60.5006L920.032 61.8892L920.033 61.8878L918.593 60.5006ZM927.105 54.5319L927.93 56.3538L927.941 56.3488L927.952 56.3436L927.105 54.5319ZM950.252 53.4117L949.576 55.2942L949.585 55.2973L950.252 53.4117ZM959.62 59.2423L961.125 60.5594L962.336 59.1756L961.058 57.8529L959.62 59.2423ZM950.818 69.2992L949.392 70.7015L950.904 72.2385L952.323 70.6163L950.818 69.2992ZM945.143 65.1871L944.333 67.0158L944.333 67.0158L945.143 65.1871ZM931.746 66.2895L932.805 67.9865L932.82 67.9771L932.835 67.9673L931.746 66.2895ZM927.234 71.2202L925.458 70.3014L925.45 70.3166L925.442 70.332L927.234 71.2202ZM928.038 85.4081L926.331 86.4503L926.346 86.4737L926.36 86.4967L928.038 85.4081ZM932.96 89.7808L933.834 87.9823L933.834 87.9823L932.96 89.7808ZM946.174 89.1115L947.275 90.7814L947.275 90.7814L946.174 89.1115ZM949.807 84.6603L947.97 83.8679L947.962 83.8868L947.954 83.9058L949.807 84.6603ZM950.776 78.1415L951.733 76.3857L948.538 74.6432L948.78 78.2744L950.776 78.1415ZM960.749 83.581L960.822 85.5797L968.106 85.3153L961.707 81.8252L960.749 83.581ZM937.584 84.4218L935.588 84.5547L935.717 86.4909L937.656 86.4205L937.584 84.4218ZM936.84 73.2465L936.707 71.251L934.711 71.3838L934.844 73.3794L936.84 73.2465ZM964.429 71.4097L966.424 71.2768L966.291 69.2812L964.296 69.4141L964.429 71.4097ZM962.299 88.9499L960.469 88.1439L960.465 88.1519L960.462 88.16L962.299 88.9499ZM953.856 99.1232L952.766 97.4466L952.758 97.4522L953.856 99.1232ZM940.392 101.313C936.747 101.555 933.365 101.186 930.228 100.226L929.058 104.051C932.701 105.165 936.573 105.576 940.658 105.304L940.392 101.313ZM930.261 100.236C927.145 99.2244 924.385 97.7182 921.962 95.7198L919.417 98.8053C922.24 101.135 925.449 102.879 929.025 104.041L930.261 100.236ZM921.977 95.7319C919.606 93.7378 917.705 91.3496 916.267 88.5526L912.709 90.3819C914.387 93.6447 916.62 96.4533 919.402 98.7931L921.977 95.7319ZM916.267 88.5526C914.844 85.7852 914.007 82.7003 913.779 79.2718L909.788 79.5376C910.05 83.4661 911.016 87.0896 912.709 90.3819L916.267 88.5526ZM913.779 79.2718C913.548 75.8023 913.988 72.6178 915.071 69.6922L911.32 68.3037C910.024 71.8036 909.523 75.5569 909.788 79.5376L913.779 79.2718ZM915.062 69.7153C916.203 66.7464 917.858 64.1429 920.032 61.8892L917.153 59.112C914.602 61.7563 912.659 64.8178 911.328 68.2805L915.062 69.7153ZM920.033 61.8878C922.258 59.578 924.884 57.7333 927.93 56.3538L926.28 52.71C922.788 54.2914 919.74 56.4258 917.152 59.1134L920.033 61.8878ZM927.952 56.3436C930.98 54.928 934.278 54.0944 937.864 53.8557L937.598 49.8645C933.548 50.1342 929.762 51.0818 926.258 52.7202L927.952 56.3436ZM937.864 53.8557C942.244 53.5641 946.136 54.0597 949.576 55.2942L950.927 51.5293C946.892 50.0811 942.438 49.5423 937.598 49.8645L937.864 53.8557ZM949.585 55.2973C953.116 56.546 955.962 58.3338 958.181 60.6316L961.058 57.8529C958.355 55.0532 954.956 52.954 950.919 51.5262L949.585 55.2973ZM958.115 57.9251L949.313 67.982L952.323 70.6163L961.125 60.5594L958.115 57.9251ZM952.244 67.8969C950.255 65.8739 948.161 64.3368 945.953 63.3585L944.333 67.0158C945.979 67.7452 947.669 68.9494 949.392 70.7015L952.244 67.8969ZM945.953 63.3585C943.666 62.3458 941.062 61.9812 938.207 62.1712L938.473 66.1624C940.833 66.0052 942.764 66.3209 944.333 67.0158L945.953 63.3585ZM938.207 62.1712C935.425 62.3564 932.894 63.1611 930.658 64.6118L932.835 67.9673C934.455 66.9163 936.319 66.3058 938.473 66.1624L938.207 62.1712ZM930.688 64.5925C928.443 65.9929 926.695 67.9095 925.458 70.3014L929.01 72.1391C929.928 70.3652 931.188 68.9947 932.805 67.9865L930.688 64.5925ZM925.442 70.332C924.23 72.7774 923.763 75.5298 923.962 78.5237L927.953 78.258C927.793 75.8505 928.176 73.8225 929.026 72.1084L925.442 70.332ZM923.962 78.5237C924.16 81.4921 924.93 84.1545 926.331 86.4503L929.745 84.3659C928.732 82.7067 928.115 80.6909 927.953 78.258L923.962 78.5237ZM926.36 86.4967C927.806 88.7241 929.721 90.4299 932.085 91.5794L933.834 87.9823C932.138 87.1571 930.773 85.9478 929.716 84.3195L926.36 86.4967ZM932.085 91.5794C934.474 92.7415 937.149 93.19 940.049 92.997L939.783 89.0058C937.468 89.16 935.505 88.7948 933.834 87.9823L932.085 91.5794ZM940.049 92.997C942.817 92.8126 945.26 92.1091 947.275 90.7814L945.074 87.4415C943.773 88.2989 942.044 88.8553 939.783 89.0058L940.049 92.997ZM947.275 90.7814C949.277 89.462 950.746 87.6559 951.659 85.4149L947.954 83.9058C947.34 85.4145 946.387 86.5758 945.074 87.4415L947.275 90.7814ZM951.643 85.4527C952.603 83.2285 952.952 80.7277 952.771 78.0087L948.78 78.2744C948.928 80.4911 948.631 82.3362 947.97 83.8679L951.643 85.4527ZM949.818 79.8974L959.792 85.3368L961.707 81.8252L951.733 76.3857L949.818 79.8974ZM960.677 81.5823L937.511 82.4231L937.656 86.4205L960.822 85.5797L960.677 81.5823ZM939.579 84.2889L938.835 73.1137L934.844 73.3794L935.588 84.5547L939.579 84.2889ZM936.973 75.2421L964.562 73.4052L964.296 69.4141L936.707 71.251L936.973 75.2421ZM962.433 71.5425L962.573 73.6379L966.564 73.3722L966.424 71.2768L962.433 71.5425ZM962.573 73.6379C962.954 79.3583 962.219 84.1695 960.469 88.1439L964.13 89.7559C966.199 85.0574 966.977 79.572 966.564 73.3722L962.573 73.6379ZM960.462 88.16C958.747 92.1496 956.184 95.2241 952.766 97.4466L954.947 100.8C959.061 98.1245 962.126 94.4168 964.137 89.7398L960.462 88.16ZM952.758 97.4522C949.371 99.6792 945.273 100.988 940.392 101.313L940.658 105.304C946.114 104.94 950.904 103.459 954.955 100.794L952.758 97.4522ZM1000.09 97.518L999.476 99.4202L999.485 99.4232L1000.09 97.518ZM991.14 92.6421L989.852 94.1726L989.86 94.1788L989.867 94.1848L991.14 92.6421ZM984.934 84.777L983.15 85.682L983.15 85.682L984.934 84.777ZM983.497 64.2471L981.612 63.5763L981.608 63.5883L981.604 63.6002L983.497 64.2471ZM988.61 55.6985L987.131 54.3521L987.131 54.3521L988.61 55.6985ZM996.773 49.7531L997.615 51.5672L997.622 51.564L997.629 51.5608L996.773 49.7531ZM1018.36 48.3161L1017.74 50.2183L1017.75 50.2236L1017.77 50.2286L1018.36 48.3161ZM1027.3 53.1222L1028.59 51.5917L1028.59 51.5917L1027.3 53.1222ZM1033.44 60.992L1031.65 61.8746L1031.65 61.8907L1031.66 61.9066L1033.44 60.992ZM1034.81 81.5265L1032.92 80.8659L1032.92 80.8727L1032.92 80.8796L1034.81 81.5265ZM1029.77 90.1403L1031.25 91.4867L1031.25 91.4794L1031.26 91.472L1029.77 90.1403ZM1021.61 96.1556L1022.45 97.9696L1022.46 97.9644L1022.48 97.9591L1021.61 96.1556ZM1016.76 84.342L1015.63 82.6869L1016.76 84.342ZM1020.84 79.2996L1018.99 78.526L1018.99 78.526L1020.84 79.2996ZM1020.62 66.5459L1018.77 67.303L1018.78 67.3343L1018.8 67.3653L1020.62 66.5459ZM1017.82 62.4527L1016.45 63.9039L1016.46 63.9174L1016.48 63.9306L1017.82 62.4527ZM1013.59 59.9985L1012.93 61.8875L1012.97 61.8993L1013 61.9099L1013.59 59.9985ZM1001.62 61.4968L1002.72 63.1722L1002.73 63.1622L1002.75 63.1519L1001.62 61.4968ZM997.535 66.4694L999.372 67.26L999.376 67.2515L999.38 67.243L997.535 66.4694ZM997.688 79.2976L995.837 80.0547L995.846 80.0776L995.856 80.1003L997.688 79.2976ZM1000.56 83.4559L999.184 84.9071L999.198 84.9206L999.213 84.9338L1000.56 83.4559ZM1004.72 85.9148L1004.07 87.8038L1004.1 87.8157L1004.13 87.8263L1004.72 85.9148ZM1010.92 96.7573C1007.23 97.0027 1003.83 96.6127 1000.7 95.6128L999.485 99.4232C1003.14 100.591 1007.05 101.024 1011.18 100.748L1010.92 96.7573ZM1000.71 95.6158C997.596 94.6039 994.835 93.0977 992.413 91.0993L989.867 94.1848C992.69 96.5141 995.899 98.2586 999.476 99.4202L1000.71 95.6158ZM992.427 91.1115C990.062 89.1219 988.16 86.7147 986.717 83.8719L983.15 85.682C984.83 88.9921 987.065 91.8283 989.852 94.1726L992.427 91.1115ZM986.717 83.8719C985.286 81.0522 984.448 77.9399 984.22 74.5117L980.229 74.7774C980.49 78.7063 981.459 82.349 983.15 85.682L986.717 83.8719ZM984.22 74.5117C983.988 71.0238 984.387 67.8257 985.389 64.894L981.604 63.6002C980.414 67.0817 979.965 70.8152 980.229 74.7774L984.22 74.5117ZM985.381 64.9179C986.436 61.955 988.003 59.3358 990.089 57.0449L987.131 54.3521C984.684 57.04 982.843 60.1199 981.612 63.5763L985.381 64.9179ZM990.089 57.0449C992.169 54.7601 994.671 52.934 997.615 51.5672L995.931 47.939C992.524 49.5207 989.584 51.6582 987.131 54.3521L990.089 57.0449ZM997.629 51.5608C1000.6 50.1547 1003.92 49.3176 1007.6 49.0722L1007.34 45.081C1003.2 45.3565 999.385 46.3037 995.917 47.9454L997.629 51.5608ZM1007.6 49.0722C1011.29 48.8268 1014.66 49.2187 1017.74 50.2183L1018.97 46.4139C1015.36 45.2401 1011.47 44.8056 1007.34 45.081L1007.6 49.0722ZM1017.77 50.2286C1020.92 51.1912 1023.66 52.6682 1026.02 54.6528L1028.59 51.5917C1025.8 49.2423 1022.57 47.5153 1018.94 46.4037L1017.77 50.2286ZM1026.02 54.6528C1028.38 56.6378 1030.25 59.039 1031.65 61.8746L1035.24 60.1093C1033.6 56.7859 1031.38 53.9406 1028.59 51.5917L1026.02 54.6528ZM1031.66 61.9066C1033.08 64.671 1033.92 67.7785 1034.15 71.2572L1038.15 70.9915C1037.88 67.0201 1036.91 63.3726 1035.22 60.0773L1031.66 61.9066ZM1034.15 71.2572C1034.38 74.6854 1033.96 77.8813 1032.92 80.8659L1036.7 82.1871C1037.93 78.6593 1038.41 74.9204 1038.15 70.9915L1034.15 71.2572ZM1032.92 80.8796C1031.91 83.8327 1030.36 86.4713 1028.28 88.8086L1031.26 91.472C1033.7 88.7374 1035.52 85.6335 1036.7 82.1734L1032.92 80.8796ZM1028.29 88.7939C1026.2 91.0842 1023.7 92.9375 1020.75 94.3521L1022.48 97.9591C1025.87 96.332 1028.8 94.1751 1031.25 91.4867L1028.29 88.7939ZM1020.77 94.3415C1017.84 95.7016 1014.56 96.5146 1010.92 96.7573L1011.18 100.748C1015.27 100.477 1019.03 99.5579 1022.45 97.9696L1020.77 94.3415ZM1010.22 88.465C1013.12 88.272 1015.7 87.4742 1017.88 85.9971L1015.63 82.6869C1014.14 83.6991 1012.28 84.3196 1009.96 84.4738L1010.22 88.465ZM1017.88 85.9971C1020.05 84.5268 1021.65 82.5344 1022.68 80.0732L1018.99 78.526C1018.25 80.2988 1017.13 81.668 1015.63 82.6869L1017.88 85.9971ZM1022.68 80.0732C1023.71 77.6183 1024.09 74.8663 1023.89 71.8703L1019.9 72.1361C1020.07 74.6346 1019.74 76.7469 1018.99 78.526L1022.68 80.0732ZM1023.89 71.8703C1023.74 69.6258 1023.27 67.5677 1022.45 65.7265L1018.8 67.3653C1019.4 68.7029 1019.78 70.283 1019.9 72.1361L1023.89 71.8703ZM1022.47 65.7888C1021.7 63.9015 1020.61 62.2829 1019.17 60.9749L1016.48 63.9306C1017.43 64.8019 1018.2 65.9121 1018.77 67.303L1022.47 65.7888ZM1019.2 61.0015C1017.77 59.647 1016.09 58.6749 1014.18 58.087L1013 61.9099C1014.34 62.3218 1015.48 62.9859 1016.45 63.9039L1019.2 61.0015ZM1014.25 58.1095C1012.37 57.4579 1010.33 57.2288 1008.15 57.3738L1008.42 61.365C1010.15 61.2496 1011.65 61.4398 1012.93 61.8875L1014.25 58.1095ZM1008.15 57.3738C1005.26 57.5668 1002.68 58.3646 1000.5 59.8417L1002.75 63.1519C1004.24 62.1397 1006.1 61.5193 1008.42 61.365L1008.15 57.3738ZM1000.53 59.8213C998.342 61.2485 996.726 63.2278 995.691 65.6958L999.38 67.243C1000.12 65.477 1001.23 64.1412 1002.72 63.1722L1000.53 59.8213ZM995.698 65.6787C994.657 68.0976 994.278 70.8345 994.477 73.8288L998.469 73.563C998.302 71.0628 998.631 68.982 999.372 67.26L995.698 65.6787ZM994.477 73.8288C994.629 76.0999 995.071 78.1836 995.837 80.0547L999.539 78.5405C998.963 77.1334 998.596 75.4827 998.469 73.563L994.477 73.8288ZM995.856 80.1003C996.671 81.9605 997.777 83.5727 999.184 84.9071L1001.94 82.0047C1000.95 81.0667 1000.14 79.9066 999.52 78.4948L995.856 80.1003ZM999.213 84.9338C1000.61 86.2121 1002.24 87.1685 1004.07 87.8038L1005.38 84.0259C1004.05 83.5621 1002.9 82.8791 1001.91 81.9781L999.213 84.9338ZM1004.13 87.8263C1006.02 88.4082 1008.06 88.609 1010.22 88.465L1009.96 84.4738C1008.21 84.5903 1006.67 84.4213 1005.31 84.0034L1004.13 87.8263ZM1067.52 74.0868L1065.53 74.2197L1065.66 76.2153L1067.65 76.0824L1067.52 74.0868ZM1066.88 64.4482L1066.75 62.4526L1064.75 62.5855L1064.88 64.581L1066.88 64.4482ZM1079.57 62.2003L1078.13 60.813L1078.11 60.8297L1078.1 60.8468L1079.57 62.2003ZM1079.08 54.7967L1077.79 56.3334L1077.81 56.3482L1077.83 56.3626L1079.08 54.7967ZM1066.2 54.2508L1064.2 54.3836L1064.34 56.3792L1066.33 56.2463L1066.2 54.2508ZM1065.53 44.193L1065.4 42.1974L1063.4 42.3303L1063.54 44.3259L1065.53 44.193ZM1085.42 44.7628L1086.17 42.9075L1086.17 42.9075L1085.42 44.7628ZM1091.92 49.592L1090.33 50.8095L1090.33 50.8095L1091.92 49.592ZM1092.89 65.242L1091.17 64.2209L1091.16 64.2332L1091.16 64.2456L1092.89 65.242ZM1086.95 70.8989L1087.91 72.652L1087.91 72.652L1086.95 70.8989ZM1057.53 94.6763L1055.53 94.8091L1055.66 96.8047L1057.66 96.6719L1057.53 94.6763ZM1054.22 44.9464L1054.08 42.9508L1052.09 43.0837L1052.22 45.0792L1054.22 44.9464ZM1068.18 44.0163L1070.18 43.8834L1070.05 41.8879L1068.05 42.0207L1068.18 44.0163ZM1071.5 93.7462L1071.63 95.7418L1073.62 95.6089L1073.49 93.6133L1071.5 93.7462ZM1084.35 92.8905L1082.74 94.0761L1083.39 94.959L1084.48 94.8861L1084.35 92.8905ZM1069.38 72.5597L1068.83 70.6375L1066.07 71.4312L1067.77 73.7452L1069.38 72.5597ZM1081.77 68.9987L1083.33 67.7427L1082.5 66.7099L1081.22 67.0765L1081.77 68.9987ZM1100.2 91.8349L1100.34 93.8305L1104.18 93.5748L1101.76 90.5789L1100.2 91.8349ZM1069.52 73.954L1068.87 64.3153L1064.88 64.581L1065.53 74.2197L1069.52 73.954ZM1067.01 66.4438L1075.46 65.8811L1075.2 61.8899L1066.75 62.4526L1067.01 66.4438ZM1075.46 65.8811C1077.67 65.734 1079.66 65.0605 1081.04 63.5537L1078.1 60.8468C1077.65 61.3328 1076.81 61.7827 1075.2 61.8899L1075.46 65.8811ZM1081.01 63.5875C1082.41 62.135 1082.99 60.2934 1082.85 58.2633L1078.86 58.529C1078.93 59.5721 1078.65 60.2666 1078.13 60.813L1081.01 63.5875ZM1082.85 58.2633C1082.72 56.2332 1081.9 54.4849 1080.32 53.2307L1077.83 56.3626C1078.42 56.8345 1078.79 57.4859 1078.86 58.529L1082.85 58.2633ZM1080.36 53.2599C1078.78 51.9501 1076.73 51.5454 1074.52 51.6925L1074.78 55.6836C1076.39 55.5765 1077.29 55.9109 1077.79 56.3334L1080.36 53.2599ZM1074.52 51.6925L1066.07 52.2552L1066.33 56.2463L1074.78 55.6836L1074.52 51.6925ZM1068.2 54.1179L1067.53 44.0602L1063.54 44.3259L1064.2 54.3836L1068.2 54.1179ZM1065.66 46.1886L1076.35 45.4771L1076.08 41.4859L1065.4 42.1974L1065.66 46.1886ZM1076.35 45.4771C1079.55 45.2639 1082.31 45.6662 1084.68 46.6181L1086.17 42.9075C1083.15 41.6922 1079.77 41.2403 1076.08 41.4859L1076.35 45.4771ZM1084.68 46.6181C1087.06 47.5788 1088.93 48.9795 1090.33 50.8095L1093.5 48.3745C1091.63 45.9328 1089.17 44.114 1086.17 42.9075L1084.68 46.6181ZM1090.33 50.8095C1091.7 52.5983 1092.5 54.7678 1092.68 57.3987L1096.67 57.133C1096.45 53.8037 1095.41 50.8574 1093.5 48.3745L1090.33 50.8095ZM1092.68 57.3987C1092.85 60.0168 1092.33 62.2657 1091.17 64.2209L1094.61 66.2631C1096.22 63.5436 1096.89 60.4751 1096.67 57.133L1092.68 57.3987ZM1091.16 64.2456C1090.02 66.2277 1088.32 67.8656 1085.99 69.1458L1087.91 72.652C1090.82 71.0581 1093.08 68.9248 1094.62 66.2384L1091.16 64.2456ZM1085.99 69.1458C1083.68 70.4135 1080.83 71.1963 1077.38 71.4263L1077.64 75.4174C1081.54 75.1576 1084.99 74.2584 1087.91 72.652L1085.99 69.1458ZM1077.38 71.4263L1067.39 72.0913L1067.65 76.0824L1077.64 75.4174L1077.38 71.4263ZM1059.52 94.5434L1056.21 44.8135L1052.22 45.0792L1055.53 94.8091L1059.52 94.5434ZM1054.35 46.942L1068.32 46.0119L1068.05 42.0207L1054.08 42.9508L1054.35 46.942ZM1066.19 44.1492L1069.5 93.8791L1073.49 93.6133L1070.18 43.8834L1066.19 44.1492ZM1071.36 91.7506L1057.39 92.6807L1057.66 96.6719L1071.63 95.7418L1071.36 91.7506ZM1085.96 91.705L1070.99 71.3742L1067.77 73.7452L1082.74 94.0761L1085.96 91.705ZM1069.94 74.4819L1082.33 70.9209L1081.22 67.0765L1068.83 70.6375L1069.94 74.4819ZM1080.22 70.2547L1098.65 93.0909L1101.76 90.5789L1083.33 67.7427L1080.22 70.2547ZM1100.07 89.8393L1084.21 90.895L1084.48 94.8861L1100.34 93.8305L1100.07 89.8393ZM1117.67 90.6717L1115.68 90.8046L1115.81 92.8002L1117.81 92.6673L1117.67 90.6717ZM1114.36 40.9418L1114.23 38.9462L1112.23 39.0791L1112.37 41.0747L1114.36 40.9418ZM1128.33 40.0118L1130.33 39.8789L1130.19 37.8833L1128.2 38.0162L1128.33 40.0118ZM1131.64 89.7417L1131.77 91.7372L1133.77 91.6044L1133.64 89.6088L1131.64 89.7417ZM1119.67 90.5389L1116.36 40.809L1112.37 41.0747L1115.68 90.8046L1119.67 90.5389ZM1114.49 42.9374L1128.46 42.0073L1128.2 38.0162L1114.23 38.9462L1114.49 42.9374ZM1126.34 40.1446L1129.65 89.8745L1133.64 89.6088L1130.33 39.8789L1126.34 40.1446ZM1131.51 87.7461L1117.54 88.6761L1117.81 92.6673L1131.77 91.7372L1131.51 87.7461ZM1153.88 88.2612L1151.88 88.3941L1152.02 90.3896L1154.01 90.2568L1153.88 88.2612ZM1150.57 38.5313L1150.43 36.5357L1148.44 36.6686L1148.57 38.6642L1150.57 38.5313ZM1164.54 37.6012L1166.53 37.4684L1166.4 35.4728L1164.4 35.6057L1164.54 37.6012ZM1167.85 87.3311L1167.98 89.3267L1169.98 89.1938L1169.84 87.1983L1167.85 87.3311ZM1165.19 87.5078L1163.2 87.6407L1163.33 89.6363L1165.33 89.5034L1165.19 87.5078ZM1164.42 75.9135L1164.29 73.9179L1162.29 74.0508L1162.43 76.0464L1164.42 75.9135ZM1191.1 74.1371L1193.1 74.0042L1192.96 72.0086L1190.97 72.1415L1191.1 74.1371ZM1191.87 85.7314L1192.01 87.727L1194 87.5941L1193.87 85.5986L1191.87 85.7314ZM1163.88 67.8115L1161.89 67.9443L1162.02 69.9399L1164.01 69.807L1163.88 67.8115ZM1163.13 56.4965L1163 54.5009L1161 54.6338L1161.13 56.6294L1163.13 56.4965ZM1187.22 54.8921L1189.22 54.7593L1189.09 52.7637L1187.09 52.8966L1187.22 54.8921ZM1187.98 66.2071L1188.11 68.2027L1190.11 68.0698L1189.97 66.0742L1187.98 66.2071ZM1162.65 49.3723L1160.66 49.5051L1160.79 51.5007L1162.79 51.3679L1162.65 49.3723ZM1161.88 37.7779L1161.75 35.7824L1159.75 35.9152L1159.89 37.9108L1161.88 37.7779ZM1188.14 36.0294L1190.14 35.8966L1190.01 33.901L1188.01 34.0338L1188.14 36.0294ZM1188.92 47.6238L1189.05 49.6193L1191.04 49.4865L1190.91 47.4909L1188.92 47.6238ZM1155.87 88.1283L1152.56 38.3984L1148.57 38.6642L1151.88 88.3941L1155.87 88.1283ZM1150.7 40.5269L1164.67 39.5968L1164.4 35.6057L1150.43 36.5357L1150.7 40.5269ZM1162.54 37.7341L1165.85 87.464L1169.84 87.1983L1166.53 37.4684L1162.54 37.7341ZM1167.71 85.3355L1153.75 86.2656L1154.01 90.2568L1167.98 89.3267L1167.71 85.3355ZM1167.19 87.375L1166.42 75.7806L1162.43 76.0464L1163.2 87.6407L1167.19 87.375ZM1164.55 77.9091L1191.23 76.1327L1190.97 72.1415L1164.29 73.9179L1164.55 77.9091ZM1189.11 74.27L1189.88 85.8643L1193.87 85.5986L1193.1 74.0042L1189.11 74.27ZM1191.74 83.7358L1165.06 85.5123L1165.33 89.5034L1192.01 87.727L1191.74 83.7358ZM1165.88 67.6786L1165.12 56.3636L1161.13 56.6294L1161.89 67.9443L1165.88 67.6786ZM1163.26 58.4921L1187.36 56.8877L1187.09 52.8966L1163 54.5009L1163.26 58.4921ZM1185.23 55.025L1185.98 66.34L1189.97 66.0742L1189.22 54.7593L1185.23 55.025ZM1187.85 64.2115L1163.75 65.8159L1164.01 69.807L1188.11 68.2027L1187.85 64.2115ZM1164.65 49.2394L1163.88 37.6451L1159.89 37.9108L1160.66 49.5051L1164.65 49.2394ZM1162.01 39.7735L1188.28 38.025L1188.01 34.0338L1161.75 35.7824L1162.01 39.7735ZM1186.15 36.1623L1186.92 47.7566L1190.91 47.4909L1190.14 35.8966L1186.15 36.1623ZM1188.78 45.6282L1162.52 47.3767L1162.79 51.3679L1189.05 49.6193L1188.78 45.6282ZM1216.12 83.1348L1215.5 85.0354L1215.52 85.041L1215.53 85.0463L1216.12 83.1348ZM1207.07 77.7746L1205.56 76.4575L1204.25 77.9495L1205.74 79.2682L1207.07 77.7746ZM1215.21 68.4627L1216.49 66.9235L1214.99 65.6796L1213.71 67.1455L1215.21 68.4627ZM1221.21 72.0625L1220.49 73.928L1220.5 73.9349L1220.52 73.9416L1221.21 72.0625ZM1232 71.8353L1233.1 73.502L1233.13 73.4826L1233.16 73.4621L1232 71.8353ZM1231.88 66.8623L1230.7 68.4804L1230.73 68.5002L1230.75 68.5191L1231.88 66.8623ZM1228.4 65.2696L1227.76 67.1643L1227.8 67.1774L1227.84 67.1889L1228.4 65.2696ZM1223.75 63.8955L1223.23 65.8263L1223.24 65.8286L1223.25 65.8307L1223.75 63.8955ZM1218.73 62.1955L1217.97 64.0486L1217.97 64.0486L1218.73 62.1955ZM1214 59.6342L1212.79 61.2324L1212.82 61.2545L1212.85 61.2754L1214 59.6342ZM1210.43 55.5922L1208.69 56.5846L1208.7 56.5941L1208.7 56.6034L1210.43 55.5922ZM1210.5 40.9247L1208.77 39.9364L1208.77 39.9364L1210.5 40.9247ZM1216.65 35.184L1217.56 36.9622L1217.57 36.9558L1217.59 36.9493L1216.65 35.184ZM1236.83 33.7702L1236.24 35.6816L1236.26 35.6868L1236.27 35.6917L1236.83 33.7702ZM1245.12 38.2689L1246.62 39.5921L1247.92 38.1187L1246.47 36.7929L1245.12 38.2689ZM1236.91 47.5855L1235.61 49.1107L1237.11 50.3797L1238.41 48.9087L1236.91 47.5855ZM1232.08 44.6097L1231.33 46.4633L1231.35 46.4727L1231.37 46.4814L1232.08 44.6097ZM1223.53 44.758L1222.48 43.054L1222.46 43.0658L1222.44 43.0781L1223.53 44.758ZM1223.83 49.2979L1222.71 50.9547L1222.74 50.9747L1222.77 50.9935L1223.83 49.2979ZM1227.22 50.7557L1226.64 52.6687L1226.65 52.6719L1226.66 52.675L1227.22 50.7557ZM1231.87 52.0598L1231.35 53.9906L1231.36 53.9929L1231.37 53.995L1231.87 52.0598ZM1236.97 53.7552L1236.21 55.6083L1236.23 55.6171L1236.26 55.6254L1236.97 53.7552ZM1241.63 56.3911L1240.4 57.9656L1240.43 57.9879L1240.46 58.0092L1241.63 56.3911ZM1245.28 60.5681L1247.02 59.5938L1247.02 59.5938L1245.28 60.5681ZM1242.3 79.0768L1243.62 80.58L1243.62 80.5775L1242.3 79.0768ZM1227.21 82.2158C1223.16 82.4856 1219.67 82.1359 1216.71 81.2234L1215.53 85.0463C1219.06 86.1334 1223.06 86.5014 1227.48 86.207L1227.21 82.2158ZM1216.74 81.2342C1213.83 80.2805 1211.05 78.6452 1208.4 76.2811L1205.74 79.2682C1208.75 81.952 1212 83.8902 1215.5 85.0354L1216.74 81.2342ZM1208.57 79.0918L1216.72 69.7798L1213.71 67.1455L1205.56 76.4575L1208.57 79.0918ZM1213.94 70.0018C1216.01 71.7237 1218.2 73.0424 1220.49 73.928L1221.93 70.1971C1220.09 69.4867 1218.28 68.4055 1216.49 66.9235L1213.94 70.0018ZM1220.52 73.9416C1222.86 74.7923 1225.31 75.1269 1227.85 74.9573L1227.59 70.9662C1225.57 71.1004 1223.68 70.8355 1221.89 70.1835L1220.52 73.9416ZM1227.85 74.9573C1229.9 74.8212 1231.73 74.4091 1233.1 73.502L1230.89 70.1686C1230.38 70.5093 1229.36 70.848 1227.59 70.9662L1227.85 74.9573ZM1233.16 73.4621C1234.58 72.4476 1235.42 70.9708 1235.3 69.1602L1231.3 69.4259C1231.32 69.6641 1231.29 69.8821 1230.83 70.2085L1233.16 73.4621ZM1235.3 69.1602C1235.18 67.4942 1234.37 66.1326 1233 65.2055L1230.75 68.5191C1231.15 68.7842 1231.28 69.0431 1231.3 69.4259L1235.3 69.1602ZM1233.05 65.2442C1231.93 64.4276 1230.54 63.8121 1228.96 63.3502L1227.84 67.1889C1229.12 67.5654 1230.05 68.0118 1230.7 68.4804L1233.05 65.2442ZM1229.04 63.3748C1227.6 62.8882 1226.01 62.417 1224.26 61.9603L1223.25 65.8307C1224.92 66.2684 1226.43 66.7132 1227.76 67.1643L1229.04 63.3748ZM1224.27 61.9647C1222.69 61.5367 1221.09 60.9965 1219.48 60.3425L1217.97 64.0486C1219.73 64.7607 1221.48 65.3538 1223.23 65.8263L1224.27 61.9647ZM1219.48 60.3425C1217.93 59.7145 1216.49 58.9314 1215.14 57.9929L1212.85 61.2754C1214.45 62.3859 1216.16 63.3104 1217.97 64.0486L1219.48 60.3425ZM1215.2 58.0359C1213.99 57.1289 1212.98 55.9849 1212.15 54.5809L1208.7 56.6034C1209.78 58.4404 1211.14 59.991 1212.79 61.2324L1215.2 58.0359ZM1212.17 54.5997C1211.4 53.2604 1210.9 51.5064 1210.75 49.2569L1206.76 49.5226C1206.94 52.2089 1207.55 54.5899 1208.69 56.5846L1212.17 54.5997ZM1210.75 49.2569C1210.56 46.374 1211.08 43.9536 1212.24 41.9131L1208.77 39.9364C1207.16 42.7568 1206.52 45.9798 1206.76 49.5226L1210.75 49.2569ZM1212.24 41.9131C1213.42 39.851 1215.16 38.1981 1217.56 36.9622L1215.73 33.4058C1212.71 34.9632 1210.36 37.1374 1208.77 39.9364L1212.24 41.9131ZM1217.59 36.9493C1220 35.6661 1222.95 34.8746 1226.5 34.6381L1226.24 30.6469C1222.25 30.9126 1218.72 31.8155 1215.71 33.4187L1217.59 36.9493ZM1226.5 34.6381C1230.01 34.4046 1233.25 34.7604 1236.24 35.6816L1237.42 31.8588C1233.91 30.7803 1230.18 30.3843 1226.24 30.6469L1226.5 34.6381ZM1236.27 35.6917C1239.31 36.5675 1241.79 37.9288 1243.78 39.745L1246.47 36.7929C1243.98 34.5111 1240.93 32.8733 1237.38 31.8487L1236.27 35.6917ZM1243.63 36.9458L1235.41 46.2624L1238.41 48.9087L1246.62 39.5921L1243.63 36.9458ZM1238.2 46.0604C1236.43 44.5622 1234.63 43.4334 1232.78 42.738L1231.37 46.4814C1232.69 46.9783 1234.11 47.8334 1235.61 49.1107L1238.2 46.0604ZM1232.83 42.7561C1230.94 41.9928 1228.94 41.6918 1226.84 41.8314L1227.11 45.8226C1228.64 45.7205 1230.04 45.9413 1231.33 46.4633L1232.83 42.7561ZM1226.84 41.8314C1225.21 41.9402 1223.71 42.3009 1222.48 43.054L1224.58 46.462C1225.06 46.166 1225.85 45.9061 1227.11 45.8226L1226.84 41.8314ZM1222.44 43.0781C1221.8 43.4952 1221.24 44.0544 1220.86 44.7811C1220.49 45.5108 1220.36 46.2954 1220.41 47.0699L1224.41 46.8042C1224.4 46.7214 1224.41 46.6709 1224.41 46.6453C1224.42 46.6214 1224.42 46.611 1224.42 46.6066C1224.43 46.602 1224.43 46.5871 1224.46 46.5615C1224.48 46.5347 1224.53 46.4916 1224.61 46.4379L1222.44 43.0781ZM1220.41 47.0699C1220.52 48.722 1221.37 50.0471 1222.71 50.9547L1224.95 47.6412C1224.53 47.3566 1224.43 47.1078 1224.41 46.8042L1220.41 47.0699ZM1222.77 50.9935C1223.84 51.6648 1225.15 52.2137 1226.64 52.6687L1227.81 48.8427C1226.53 48.453 1225.58 48.0302 1224.89 47.6024L1222.77 50.9935ZM1226.66 52.675C1228.11 53.0987 1229.67 53.5373 1231.35 53.9906L1232.39 50.129C1230.74 49.6819 1229.2 49.251 1227.79 48.8363L1226.66 52.675ZM1231.37 53.995C1232.99 54.4197 1234.61 54.9571 1236.21 55.6083L1237.72 51.9021C1235.96 51.1871 1234.18 50.5943 1232.38 50.1247L1231.37 53.995ZM1236.26 55.6254C1237.75 56.1895 1239.12 56.9678 1240.4 57.9656L1242.86 54.8165C1241.28 53.5729 1239.54 52.5939 1237.67 51.885L1236.26 55.6254ZM1240.46 58.0092C1241.68 58.8968 1242.7 60.0626 1243.53 61.5425L1247.02 59.5938C1245.94 57.6464 1244.53 56.0275 1242.81 54.773L1240.46 58.0092ZM1243.53 61.5425C1244.31 62.9349 1244.81 64.7431 1244.97 67.043L1248.96 66.7773C1248.78 64.0484 1248.16 61.6286 1247.02 59.5938L1243.53 61.5425ZM1244.97 67.043C1245.27 71.5754 1243.9 74.999 1240.98 77.576L1243.62 80.5775C1247.59 77.0833 1249.33 72.3958 1248.96 66.7773L1244.97 67.043ZM1240.98 77.5735C1238.03 80.164 1233.53 81.7951 1227.21 82.2158L1227.48 86.207C1234.29 85.7534 1239.77 83.9615 1243.62 80.58L1240.98 77.5735Z" fill="#65666A" mask="url(#path-5-outside-1_21_241)"/>
<mask id="path-7-outside-2_21_241" maskUnits="userSpaceOnUse" x="3.12494" y="70.3408" width="592.417" height="95.0718" fill="black">
<rect fill="white" x="3.12494" y="70.3408" width="592.417" height="95.0718"/>
<path d="M8.77119 162.278L5.46017 112.548L19.4292 111.618L22.7403 161.348L8.77119 162.278ZM18.9096 143.854L18.1377 132.259L42.5835 130.632L43.3555 142.226L18.9096 143.854ZM17.5471 123.389L16.7751 111.795L42.2687 110.097L43.0406 121.691L17.5471 123.389ZM65.6433 158.491L62.3323 108.761L76.3014 107.831L79.6124 157.561L65.6433 158.491ZM77.0281 157.733L76.2376 145.86L99.4961 144.311L100.287 156.185L77.0281 157.733ZM114.721 155.224L130.338 104.233L144.587 103.285L166.616 151.768L152.088 152.736L135.376 111.405L140.405 111.07L128.97 154.275L114.721 155.224ZM126.456 146.024L125.73 135.128L153.529 133.277L154.254 144.173L126.456 146.024ZM193.644 149.969L172.104 101.453L186.911 100.467L203.065 139.73L196.499 140.168L207.515 99.095L222.113 98.1231L206.915 149.085L193.644 149.969ZM267.186 146.055C263.274 146.315 259.622 145.903 256.229 144.82C252.883 143.733 249.898 142.108 247.276 139.944C244.699 137.777 242.631 135.155 241.069 132.079C239.508 129.002 238.605 125.625 238.36 121.946C238.112 118.221 238.536 114.755 239.632 111.549C240.775 108.339 242.479 105.49 244.746 103C247.012 100.511 249.733 98.5291 252.909 97.0549C256.128 95.531 259.693 94.6388 263.605 94.3784C267.516 94.118 271.145 94.5312 274.491 95.6179C277.881 96.655 280.864 98.2571 283.44 100.424C286.016 102.591 288.062 105.214 289.576 108.294C291.135 111.324 292.038 114.701 292.286 118.426C292.53 122.105 292.083 125.572 290.944 128.828C289.848 132.035 288.168 134.906 285.905 137.442C283.638 139.931 280.919 141.937 277.746 143.457C274.571 144.932 271.05 145.797 267.186 146.055ZM266.227 133.771C268.835 133.598 271.056 132.888 272.891 131.644C274.726 130.399 276.087 128.718 276.975 126.601C277.863 124.484 278.215 122.052 278.032 119.305C277.896 117.256 277.471 115.437 276.757 113.848C276.087 112.209 275.154 110.844 273.959 109.755C272.761 108.618 271.35 107.8 269.727 107.3C268.147 106.751 266.379 106.541 264.423 106.671C261.816 106.845 259.594 107.554 257.76 108.799C255.922 109.997 254.559 111.654 253.671 113.771C252.78 115.842 252.426 118.25 252.609 120.998C252.748 123.093 253.153 124.96 253.824 126.599C254.54 128.235 255.498 129.621 256.696 130.758C257.891 131.847 259.279 132.667 260.859 133.217C262.482 133.717 264.272 133.901 266.227 133.771ZM334.602 141.426C330.225 141.717 326.348 141.087 322.971 139.534C319.59 137.935 316.887 135.613 314.86 132.568C312.833 129.522 311.683 125.951 311.411 121.853L309.444 92.3086L323.413 91.3785L325.463 122.18C325.569 123.764 326.008 125.091 326.781 126.162C327.554 127.233 328.542 128.032 329.747 128.56C330.995 129.038 332.34 129.229 333.784 129.133C335.274 129.034 336.559 128.668 337.639 128.034C338.763 127.352 339.615 126.453 340.196 125.339C340.773 124.178 341.009 122.806 340.904 121.222L338.848 90.3508L352.887 89.4161L354.859 119.031C355.132 123.128 354.466 126.821 352.861 130.108C351.299 133.345 348.949 135.981 345.81 138.014C342.715 139.997 338.979 141.134 334.602 141.426ZM387.486 117.139L386.844 107.5L395.296 106.937C397.205 106.81 398.617 106.249 399.533 105.252C400.496 104.253 400.926 102.985 400.823 101.448C400.721 99.9116 400.127 98.7117 399.04 97.8487C398 96.9825 396.526 96.613 394.617 96.7401L386.166 97.3028L385.496 87.245L396.182 86.5335C399.628 86.3041 402.696 86.7312 405.388 87.8148C408.079 88.8984 410.244 90.5081 411.883 92.644C413.522 94.7798 414.44 97.3378 414.639 100.318C414.837 103.298 414.242 105.957 412.855 108.294C411.513 110.628 409.534 112.514 406.917 113.951C404.3 115.388 401.153 116.229 397.474 116.474L387.486 117.139ZM377.492 137.728L374.181 87.9984L388.15 87.0683L391.461 136.798L377.492 137.728ZM404.313 135.943L389.349 115.612L401.74 112.051L420.167 134.887L404.313 135.943ZM437.638 133.724L434.327 83.9938L448.296 83.0638L451.607 132.794L437.638 133.724ZM447.776 115.3L447.005 103.705L471.45 102.078L472.222 113.672L447.776 115.3ZM446.414 94.8348L445.642 83.2405L471.136 81.5431L471.908 93.1375L446.414 94.8348ZM515.45 129.385C511.073 129.676 507.196 129.046 503.818 127.493C500.438 125.894 497.734 123.572 495.708 120.527C493.681 117.481 492.531 113.91 492.258 109.812L490.291 80.2677L504.26 79.3377L506.311 110.139C506.416 111.723 506.856 113.05 507.628 114.121C508.401 115.192 509.39 115.991 510.594 116.519C511.842 116.997 513.188 117.188 514.631 117.092C516.121 116.993 517.407 116.627 518.487 115.994C519.611 115.311 520.463 114.412 521.043 113.298C521.621 112.137 521.857 110.765 521.752 109.182L519.696 78.31L533.735 77.3752L535.707 106.99C535.98 111.087 535.313 114.78 533.708 118.067C532.147 121.304 529.796 123.94 526.658 125.973C523.563 127.956 519.827 129.093 515.45 129.385ZM558.34 125.687L555.029 75.9575L568.998 75.0275L572.309 124.757L558.34 125.687ZM569.724 124.929L568.934 113.056L592.192 111.507L592.983 123.381L569.724 124.929Z"/>
</mask>
<path d="M8.77119 162.278L6.77561 162.411L6.90848 164.406L8.90406 164.273L8.77119 162.278ZM5.46017 112.548L5.3273 110.552L3.33172 110.685L3.46459 112.681L5.46017 112.548ZM19.4292 111.618L21.4248 111.485L21.292 109.489L19.2964 109.622L19.4292 111.618ZM22.7403 161.348L22.8731 163.343L24.8687 163.21L24.7358 161.215L22.7403 161.348ZM18.9096 143.854L16.914 143.986L17.0469 145.982L19.0425 145.849L18.9096 143.854ZM18.1377 132.259L18.0048 130.264L16.0092 130.397L16.1421 132.392L18.1377 132.259ZM42.5835 130.632L44.5791 130.499L44.4463 128.503L42.4507 128.636L42.5835 130.632ZM43.3555 142.226L43.4884 144.222L45.4839 144.089L45.3511 142.093L43.3555 142.226ZM17.5471 123.389L15.5515 123.522L15.6844 125.517L17.6799 125.384L17.5471 123.389ZM16.7751 111.795L16.6423 109.799L14.6467 109.932L14.7795 111.927L16.7751 111.795ZM42.2687 110.097L44.2643 109.964L44.1314 107.969L42.1358 108.102L42.2687 110.097ZM43.0406 121.691L43.1735 123.687L45.1691 123.554L45.0362 121.559L43.0406 121.691ZM10.7668 162.145L7.45575 112.415L3.46459 112.681L6.77561 162.411L10.7668 162.145ZM5.59303 114.543L19.5621 113.613L19.2964 109.622L5.3273 110.552L5.59303 114.543ZM17.4337 111.751L20.7447 161.481L24.7358 161.215L21.4248 111.485L17.4337 111.751ZM22.6074 159.352L8.63833 160.282L8.90406 164.273L22.8731 163.343L22.6074 159.352ZM20.9052 143.721L20.1332 132.126L16.1421 132.392L16.914 143.986L20.9052 143.721ZM18.2705 134.255L42.7164 132.627L42.4507 128.636L18.0048 130.264L18.2705 134.255ZM40.588 130.764L41.3599 142.359L45.3511 142.093L44.5791 130.499L40.588 130.764ZM43.2226 140.23L18.7767 141.858L19.0425 145.849L43.4884 144.222L43.2226 140.23ZM19.5427 123.256L18.7707 111.662L14.7795 111.927L15.5515 123.522L19.5427 123.256ZM16.908 113.79L42.4015 112.093L42.1358 108.102L16.6423 109.799L16.908 113.79ZM40.2731 110.23L41.045 121.824L45.0362 121.559L44.2643 109.964L40.2731 110.23ZM42.9078 119.696L17.4142 121.393L17.6799 125.384L43.1735 123.687L42.9078 119.696ZM65.6433 158.491L63.6477 158.624L63.7806 160.62L65.7762 160.487L65.6433 158.491ZM62.3323 108.761L62.1994 106.766L60.2039 106.899L60.3367 108.894L62.3323 108.761ZM76.3014 107.831L78.297 107.698L78.1641 105.703L76.1685 105.836L76.3014 107.831ZM79.6124 157.561L79.7453 159.557L81.7408 159.424L81.608 157.428L79.6124 157.561ZM77.0281 157.733L75.0325 157.866L75.1654 159.862L77.161 159.729L77.0281 157.733ZM76.2376 145.86L76.1047 143.864L74.1091 143.997L74.242 145.992L76.2376 145.86ZM99.4961 144.311L101.492 144.178L101.359 142.183L99.3632 142.315L99.4961 144.311ZM100.287 156.185L100.419 158.18L102.415 158.047L102.282 156.052L100.287 156.185ZM67.6389 158.358L64.3279 108.628L60.3367 108.894L63.6477 158.624L67.6389 158.358ZM62.4652 110.757L76.4342 109.827L76.1685 105.836L62.1994 106.766L62.4652 110.757ZM74.3058 107.964L77.6168 157.694L81.608 157.428L78.297 107.698L74.3058 107.964ZM79.4795 155.566L65.5105 156.496L65.7762 160.487L79.7453 159.557L79.4795 155.566ZM79.0237 157.6L78.2331 145.727L74.242 145.992L75.0325 157.866L79.0237 157.6ZM76.3704 147.855L99.6289 146.307L99.3632 142.315L76.1047 143.864L76.3704 147.855ZM97.5005 144.444L98.291 156.318L102.282 156.052L101.492 144.178L97.5005 144.444ZM100.154 154.189L76.8953 155.738L77.161 159.729L100.419 158.18L100.154 154.189ZM114.721 155.224L112.809 154.638L111.959 157.412L114.854 157.219L114.721 155.224ZM130.338 104.233L130.205 102.238L128.83 102.329L128.426 103.648L130.338 104.233ZM144.587 103.285L146.408 102.457L145.835 101.197L144.454 101.289L144.587 103.285ZM166.616 151.768L166.749 153.764L169.633 153.572L168.437 150.941L166.616 151.768ZM152.088 152.736L150.234 153.485L150.777 154.827L152.221 154.731L152.088 152.736ZM135.376 111.405L135.243 109.409L132.486 109.593L133.522 112.154L135.376 111.405ZM140.405 111.07L142.338 111.582L143.051 108.889L140.272 109.074L140.405 111.07ZM128.97 154.275L129.102 156.271L130.536 156.175L130.903 154.787L128.97 154.275ZM126.456 146.024L124.46 146.157L124.593 148.152L126.589 148.019L126.456 146.024ZM125.73 135.128L125.598 133.132L123.602 133.265L123.735 135.261L125.73 135.128ZM153.529 133.277L155.524 133.144L155.392 131.149L153.396 131.281L153.529 133.277ZM154.254 144.173L154.387 146.168L156.383 146.036L156.25 144.04L154.254 144.173ZM116.633 155.809L132.251 104.819L128.426 103.648L112.809 154.638L116.633 155.809ZM130.471 106.229L144.72 105.28L144.454 101.289L130.205 102.238L130.471 106.229ZM142.766 104.112L164.795 152.596L168.437 150.941L146.408 102.457L142.766 104.112ZM166.483 149.773L151.956 150.74L152.221 154.731L166.749 153.764L166.483 149.773ZM153.943 151.986L137.23 110.655L133.522 112.154L150.234 153.485L153.943 151.986ZM135.509 113.4L140.537 113.065L140.272 109.074L135.243 109.409L135.509 113.4ZM138.471 110.558L127.036 153.763L130.903 154.787L142.338 111.582L138.471 110.558ZM128.837 152.279L114.588 153.228L114.854 157.219L129.102 156.271L128.837 152.279ZM128.451 145.891L127.726 134.995L123.735 135.261L124.46 146.157L128.451 145.891ZM125.863 137.123L153.662 135.273L153.396 131.281L125.598 133.132L125.863 137.123ZM151.533 133.41L152.259 144.306L156.25 144.04L155.524 133.144L151.533 133.41ZM154.121 142.177L126.323 144.028L126.589 148.019L154.387 146.168L154.121 142.177ZM193.644 149.969L191.816 150.78L192.383 152.057L193.777 151.964L193.644 149.969ZM172.104 101.453L171.971 99.4572L169.114 99.6474L170.276 102.264L172.104 101.453ZM186.911 100.467L188.76 99.7059L188.213 98.3757L186.778 98.4713L186.911 100.467ZM203.065 139.73L203.198 141.726L205.973 141.541L204.914 138.969L203.065 139.73ZM196.499 140.168L194.568 139.649L193.844 142.349L196.632 142.163L196.499 140.168ZM207.515 99.095L207.382 97.0994L205.954 97.1945L205.583 98.5769L207.515 99.095ZM222.113 98.1231L224.029 98.6947L224.852 95.9363L221.98 96.1275L222.113 98.1231ZM206.915 149.085L207.048 151.081L208.434 150.989L208.831 149.657L206.915 149.085ZM195.472 149.157L173.931 100.641L170.276 102.264L191.816 150.78L195.472 149.157ZM172.236 103.448L187.044 102.462L186.778 98.4713L171.971 99.4572L172.236 103.448ZM185.061 101.228L201.215 140.491L204.914 138.969L188.76 99.7059L185.061 101.228ZM202.932 137.735L196.367 138.172L196.632 142.163L203.198 141.726L202.932 137.735ZM198.431 140.686L209.447 99.6131L205.583 98.5769L194.568 139.649L198.431 140.686ZM207.648 101.091L222.246 100.119L221.98 96.1275L207.382 97.0994L207.648 101.091ZM220.196 97.5515L204.998 148.514L208.831 149.657L224.029 98.6947L220.196 97.5515ZM206.782 147.09L193.511 147.973L193.777 151.964L207.048 151.081L206.782 147.09ZM256.229 144.82L255.612 146.722L255.621 146.725L256.229 144.82ZM247.276 139.944L245.988 141.474L245.996 141.481L246.003 141.487L247.276 139.944ZM241.069 132.079L239.286 132.984L239.286 132.984L241.069 132.079ZM239.632 111.549L237.748 110.878L237.744 110.89L237.74 110.902L239.632 111.549ZM244.746 103L243.267 101.654L243.267 101.654L244.746 103ZM252.909 97.0549L253.751 98.8689L253.758 98.8658L253.765 98.8626L252.909 97.0549ZM274.491 95.6179L273.873 97.5201L273.89 97.5254L273.906 97.5304L274.491 95.6179ZM283.44 100.424L284.727 98.8935L284.727 98.8935L283.44 100.424ZM289.576 108.294L287.782 109.176L287.79 109.192L287.798 109.208L289.576 108.294ZM290.944 128.828L289.056 128.168L289.053 128.175L289.051 128.181L290.944 128.828ZM285.905 137.442L287.384 138.788L287.39 138.781L287.397 138.774L285.905 137.442ZM277.746 143.457L278.588 145.271L278.6 145.266L278.611 145.261L277.746 143.457ZM272.891 131.644L271.768 129.989L272.891 131.644ZM276.975 126.601L275.131 125.828L275.131 125.828L276.975 126.601ZM276.757 113.848L274.906 114.605L274.919 114.636L274.933 114.667L276.757 113.848ZM273.959 109.755L272.583 111.206L272.597 111.219L272.611 111.232L273.959 109.755ZM269.727 107.3L269.07 109.189L269.104 109.201L269.138 109.212L269.727 107.3ZM257.76 108.799L258.852 110.474L258.867 110.464L258.882 110.454L257.76 108.799ZM253.671 113.771L255.508 114.562L255.512 114.553L255.515 114.545L253.671 113.771ZM253.824 126.599L251.972 127.356L251.982 127.379L251.992 127.402L253.824 126.599ZM256.696 130.758L255.32 132.209L255.334 132.222L255.349 132.236L256.696 130.758ZM260.859 133.217L260.202 135.106L260.236 135.117L260.27 135.128L260.859 133.217ZM267.053 144.059C263.367 144.305 259.968 143.915 256.838 142.915L255.621 146.725C259.276 147.892 263.182 148.326 267.318 148.05L267.053 144.059ZM256.847 142.918C253.731 141.906 250.971 140.4 248.548 138.401L246.003 141.487C248.826 143.816 252.035 145.56 255.612 146.722L256.847 142.918ZM248.563 138.413C246.198 136.424 244.295 134.016 242.853 131.174L239.286 132.984C240.966 136.294 243.201 139.13 245.988 141.474L248.563 138.413ZM242.853 131.174C241.422 128.354 240.584 125.242 240.356 121.813L236.365 122.079C236.626 126.008 237.595 129.651 239.286 132.984L242.853 131.174ZM240.356 121.813C240.124 118.326 240.523 115.127 241.525 112.196L237.74 110.902C236.55 114.383 236.101 118.117 236.365 122.079L240.356 121.813ZM241.517 112.22C242.571 109.257 244.139 106.638 246.225 104.347L243.267 101.654C240.82 104.342 238.979 107.422 237.748 110.878L241.517 112.22ZM246.225 104.347C248.305 102.062 250.807 100.236 253.751 98.8689L252.067 95.2408C248.66 96.8225 245.719 98.96 243.267 101.654L246.225 104.347ZM253.765 98.8626C256.735 97.4565 260.052 96.6194 263.737 96.374L263.472 92.3828C259.335 92.6582 255.521 93.6055 252.053 95.2472L253.765 98.8626ZM263.737 96.374C267.424 96.1285 270.795 96.5204 273.873 97.5201L275.109 93.7157C271.494 92.5419 267.608 92.1074 263.472 92.3828L263.737 96.374ZM273.906 97.5304C277.052 98.493 279.793 99.97 282.153 101.955L284.727 98.8935C281.934 96.5441 278.709 94.817 275.076 93.7054L273.906 97.5304ZM282.153 101.955C284.513 103.94 286.387 106.341 287.782 109.176L291.371 107.411C289.737 104.088 287.52 101.242 284.727 98.8935L282.153 101.955ZM287.798 109.208C289.219 111.973 290.058 115.08 290.29 118.559L294.281 118.293C294.017 114.322 293.05 110.674 291.355 107.379L287.798 109.208ZM290.29 118.559C290.518 121.987 290.1 125.183 289.056 128.168L292.831 129.489C294.066 125.961 294.543 122.222 294.281 118.293L290.29 118.559ZM289.051 128.181C288.042 131.134 286.499 133.773 284.413 136.11L287.397 138.774C289.837 136.039 291.653 132.935 292.836 129.475L289.051 128.181ZM284.426 136.096C282.341 138.386 279.833 140.239 276.882 141.654L278.611 145.261C282.005 143.634 284.936 141.477 287.384 138.788L284.426 136.096ZM276.904 141.643C273.974 143.003 270.698 143.816 267.053 144.059L267.318 148.05C271.403 147.778 275.167 146.86 278.588 145.271L276.904 141.643ZM266.36 135.767C269.258 135.574 271.836 134.776 274.014 133.299L271.768 129.989C270.276 131.001 268.412 131.621 266.095 131.776L266.36 135.767ZM274.014 133.299C276.181 131.829 277.787 129.836 278.819 127.375L275.131 125.828C274.387 127.601 273.27 128.97 271.768 129.989L274.014 133.299ZM278.819 127.375C279.849 124.92 280.228 122.168 280.028 119.172L276.037 119.438C276.203 121.936 275.877 124.049 275.131 125.828L278.819 127.375ZM280.028 119.172C279.879 116.928 279.408 114.869 278.582 113.028L274.933 114.667C275.533 116.005 275.913 117.585 276.037 119.438L280.028 119.172ZM278.608 113.091C277.836 111.203 276.741 109.585 275.307 108.277L272.611 111.232C273.567 112.104 274.337 113.214 274.906 114.605L278.608 113.091ZM275.335 108.303C273.907 106.949 272.224 105.977 270.315 105.389L269.138 109.212C270.476 109.624 271.615 110.288 272.583 111.206L275.335 108.303ZM270.384 105.411C268.51 104.76 266.468 104.531 264.29 104.676L264.556 108.667C266.289 108.551 267.783 108.742 269.07 109.189L270.384 105.411ZM264.29 104.676C261.392 104.869 258.814 105.666 256.637 107.143L258.882 110.454C260.375 109.441 262.239 108.821 264.556 108.667L264.29 104.676ZM256.667 107.123C254.478 108.55 252.862 110.53 251.827 112.998L255.515 114.545C256.256 112.779 257.366 111.443 258.852 110.474L256.667 107.123ZM251.834 112.981C250.793 115.399 250.414 118.136 250.613 121.131L254.604 120.865C254.438 118.365 254.767 116.284 255.508 114.562L251.834 112.981ZM250.613 121.131C250.764 123.402 251.207 125.485 251.972 127.356L255.675 125.842C255.099 124.435 254.732 122.784 254.604 120.865L250.613 121.131ZM251.992 127.402C252.807 129.262 253.913 130.875 255.32 132.209L258.072 129.307C257.083 128.368 256.274 127.208 255.655 125.797L251.992 127.402ZM255.349 132.236C256.751 133.514 258.375 134.47 260.202 135.106L261.516 131.328C260.182 130.864 259.032 130.181 258.044 129.28L255.349 132.236ZM260.27 135.128C262.16 135.71 264.198 135.911 266.36 135.767L266.095 131.776C264.346 131.892 262.804 131.723 261.447 131.305L260.27 135.128ZM322.971 139.534L322.116 141.342L322.126 141.347L322.135 141.351L322.971 139.534ZM314.86 132.568L313.195 133.676L313.195 133.676L314.86 132.568ZM309.444 92.3086L309.311 90.313L307.315 90.4459L307.448 92.4415L309.444 92.3086ZM323.413 91.3785L325.408 91.2457L325.275 89.2501L323.28 89.383L323.413 91.3785ZM326.781 126.162L325.159 127.332L325.159 127.332L326.781 126.162ZM329.747 128.56L328.944 130.392L328.987 130.411L329.031 130.427L329.747 128.56ZM337.639 128.034L338.651 129.76L338.664 129.752L338.678 129.744L337.639 128.034ZM340.196 125.339L341.969 126.263L341.978 126.246L341.986 126.229L340.196 125.339ZM338.848 90.3508L338.716 88.3552L336.72 88.4881L336.853 90.4837L338.848 90.3508ZM352.887 89.4161L354.883 89.2832L354.75 87.2877L352.755 87.4205L352.887 89.4161ZM352.861 130.108L351.063 129.23L351.059 129.239L352.861 130.108ZM345.81 138.014L346.889 139.698L346.898 139.692L345.81 138.014ZM334.469 139.43C330.365 139.703 326.83 139.107 323.806 137.717L322.135 141.351C325.866 143.066 330.085 143.731 334.735 143.421L334.469 139.43ZM323.826 137.726C320.766 136.279 318.346 134.196 316.525 131.46L313.195 133.676C315.428 137.031 318.414 139.592 322.116 141.342L323.826 137.726ZM316.525 131.46C314.715 128.739 313.659 125.513 313.406 121.72L309.415 121.986C309.708 126.388 310.952 130.305 313.195 133.676L316.525 131.46ZM313.406 121.72L311.439 92.1757L307.448 92.4415L309.415 121.986L313.406 121.72ZM309.576 94.3042L323.545 93.3741L323.28 89.383L309.311 90.313L309.576 94.3042ZM321.417 91.5114L323.468 122.313L327.459 122.047L325.408 91.2457L321.417 91.5114ZM323.468 122.313C323.593 124.194 324.126 125.901 325.159 127.332L328.403 124.991C327.89 124.281 327.545 123.333 327.459 122.047L323.468 122.313ZM325.159 127.332C326.14 128.691 327.411 129.72 328.944 130.392L330.549 126.728C329.674 126.344 328.967 125.774 328.403 124.991L325.159 127.332ZM329.031 130.427C330.571 131.018 332.209 131.242 333.917 131.129L333.651 127.137C332.472 127.216 331.418 127.059 330.462 126.692L329.031 130.427ZM333.917 131.129C335.657 131.013 337.255 130.578 338.651 129.76L336.628 126.309C335.862 126.758 334.89 127.055 333.651 127.137L333.917 131.129ZM338.678 129.744C340.099 128.88 341.212 127.716 341.969 126.263L338.422 124.415C338.018 125.19 337.427 125.823 336.601 126.325L338.678 129.744ZM341.986 126.229C342.753 124.688 343.023 122.947 342.899 121.09L338.908 121.355C338.995 122.664 338.793 123.668 338.405 124.448L341.986 126.229ZM342.899 121.09L340.844 90.218L336.853 90.4837L338.908 121.355L342.899 121.09ZM338.981 92.3464L353.02 91.4117L352.755 87.4205L338.716 88.3552L338.981 92.3464ZM350.892 89.549L352.864 119.163L356.855 118.898L354.883 89.2832L350.892 89.549ZM352.864 119.163C353.116 122.956 352.497 126.294 351.063 129.23L354.658 130.985C356.434 127.347 357.148 123.3 356.855 118.898L352.864 119.163ZM351.059 129.239C349.663 132.133 347.567 134.493 344.723 136.335L346.898 139.692C350.331 137.468 352.934 134.558 354.662 130.977L351.059 129.239ZM344.731 136.33C341.97 138.099 338.575 139.157 334.469 139.43L334.735 143.421C339.384 143.112 343.46 141.895 346.889 139.698L344.731 136.33ZM387.486 117.139L385.491 117.272L385.623 119.267L387.619 119.134L387.486 117.139ZM386.844 107.5L386.712 105.505L384.716 105.637L384.849 107.633L386.844 107.5ZM399.533 105.252L398.092 103.865L398.076 103.882L398.061 103.899L399.533 105.252ZM399.04 97.8487L397.76 99.3854L397.778 99.4002L397.796 99.4146L399.04 97.8487ZM386.166 97.3028L384.17 97.4356L384.303 99.4312L386.298 99.2983L386.166 97.3028ZM385.496 87.245L385.363 85.2495L383.367 85.3823L383.5 87.3779L385.496 87.245ZM405.388 87.8148L406.135 85.9596L406.135 85.9596L405.388 87.8148ZM411.883 92.644L410.296 93.8615L410.296 93.8615L411.883 92.644ZM412.855 108.294L411.135 107.273L411.128 107.285L411.121 107.298L412.855 108.294ZM406.917 113.951L407.88 115.704L407.88 115.704L406.917 113.951ZM377.492 137.728L375.496 137.861L375.629 139.857L377.625 139.724L377.492 137.728ZM374.181 87.9984L374.048 86.0028L372.052 86.1357L372.185 88.1313L374.181 87.9984ZM388.15 87.0683L390.146 86.9355L390.013 84.9399L388.017 85.0727L388.15 87.0683ZM391.461 136.798L391.594 138.794L393.589 138.661L393.457 136.665L391.461 136.798ZM404.313 135.943L402.702 137.128L403.352 138.011L404.445 137.938L404.313 135.943ZM389.349 115.612L388.796 113.69L386.035 114.483L387.738 116.797L389.349 115.612ZM401.74 112.051L403.296 110.795L402.463 109.762L401.187 110.129L401.74 112.051ZM420.167 134.887L420.3 136.883L424.141 136.627L421.724 133.631L420.167 134.887ZM389.482 117.006L388.84 107.367L384.849 107.633L385.491 117.272L389.482 117.006ZM386.977 109.496L395.429 108.933L395.163 104.942L386.712 105.505L386.977 109.496ZM395.429 108.933C397.637 108.786 399.621 108.112 401.006 106.606L398.061 103.899C397.614 104.385 396.772 104.835 395.163 104.942L395.429 108.933ZM400.974 106.64C402.372 105.187 402.954 103.345 402.819 101.315L398.828 101.581C398.897 102.624 398.619 103.319 398.092 103.865L400.974 106.64ZM402.819 101.315C402.684 99.2852 401.863 97.537 400.284 96.2827L397.796 99.4146C398.39 99.8865 398.758 100.538 398.828 101.581L402.819 101.315ZM400.32 96.312C398.748 95.0021 396.693 94.5974 394.484 94.7445L394.75 98.7357C396.359 98.6285 397.253 98.9629 397.76 99.3854L400.32 96.312ZM394.484 94.7445L386.033 95.3072L386.298 99.2983L394.75 98.7357L394.484 94.7445ZM388.161 97.1699L387.491 87.1122L383.5 87.3779L384.17 97.4356L388.161 97.1699ZM385.629 89.2406L396.315 88.5291L396.049 84.538L385.363 85.2495L385.629 89.2406ZM396.315 88.5291C399.517 88.3159 402.277 88.7182 404.641 89.6701L406.135 85.9596C403.116 84.7442 399.739 84.2923 396.049 84.538L396.315 88.5291ZM404.641 89.6701C407.027 90.6308 408.892 92.0315 410.296 93.8615L413.47 91.4265C411.596 88.9848 409.131 87.1661 406.135 85.9596L404.641 89.6701ZM410.296 93.8615C411.669 95.6503 412.468 97.8199 412.643 100.451L416.634 100.185C416.413 96.8557 415.375 93.9094 413.47 91.4265L410.296 93.8615ZM412.643 100.451C412.817 103.069 412.296 105.318 411.135 107.273L414.574 109.315C416.189 106.596 416.857 103.527 416.634 100.185L412.643 100.451ZM411.121 107.298C409.982 109.28 408.286 110.918 405.955 112.198L407.88 115.704C410.783 114.11 413.045 111.977 414.589 109.29L411.121 107.298ZM405.955 112.198C403.646 113.466 400.795 114.248 397.341 114.478L397.607 118.469C401.51 118.21 404.955 117.31 407.88 115.704L405.955 112.198ZM397.341 114.478L387.353 115.143L387.619 119.134L397.607 118.469L397.341 114.478ZM379.488 137.595L376.177 87.8655L372.185 88.1313L375.496 137.861L379.488 137.595ZM374.314 89.994L388.283 89.0639L388.017 85.0727L374.048 86.0028L374.314 89.994ZM386.154 87.2012L389.465 136.931L393.457 136.665L390.146 86.9355L386.154 87.2012ZM391.328 134.803L377.359 135.733L377.625 139.724L391.594 138.794L391.328 134.803ZM405.923 134.757L390.96 114.426L387.738 116.797L402.702 137.128L405.923 134.757ZM389.901 117.534L402.292 113.973L401.187 110.129L388.796 113.69L389.901 117.534ZM400.183 113.307L418.611 136.143L421.724 133.631L403.296 110.795L400.183 113.307ZM420.035 132.891L404.18 133.947L404.445 137.938L420.3 136.883L420.035 132.891ZM437.638 133.724L435.642 133.857L435.775 135.852L437.771 135.719L437.638 133.724ZM434.327 83.9938L434.194 81.9983L432.199 82.1311L432.331 84.1267L434.327 83.9938ZM448.296 83.0638L450.292 82.9309L450.159 80.9353L448.163 81.0682L448.296 83.0638ZM451.607 132.794L451.74 134.789L453.736 134.656L453.603 132.661L451.607 132.794ZM447.776 115.3L445.781 115.432L445.914 117.428L447.909 117.295L447.776 115.3ZM447.005 103.705L446.872 101.71L444.876 101.842L445.009 103.838L447.005 103.705ZM471.45 102.078L473.446 101.945L473.313 99.9491L471.318 100.082L471.45 102.078ZM472.222 113.672L472.355 115.667L474.351 115.535L474.218 113.539L472.222 113.672ZM446.414 94.8348L444.418 94.9677L444.551 96.9633L446.547 96.8304L446.414 94.8348ZM445.642 83.2405L445.509 81.2449L443.514 81.3778L443.646 83.3734L445.642 83.2405ZM471.136 81.5431L473.131 81.4103L472.998 79.4147L471.003 79.5475L471.136 81.5431ZM471.908 93.1375L472.04 95.133L474.036 95.0002L473.903 93.0046L471.908 93.1375ZM439.634 133.591L436.323 83.861L432.331 84.1267L435.642 133.857L439.634 133.591ZM434.46 85.9894L448.429 85.0594L448.163 81.0682L434.194 81.9983L434.46 85.9894ZM446.301 83.1966L449.612 132.927L453.603 132.661L450.292 82.9309L446.301 83.1966ZM451.474 130.798L437.505 131.728L437.771 135.719L451.74 134.789L451.474 130.798ZM449.772 115.167L449 103.572L445.009 103.838L445.781 115.432L449.772 115.167ZM447.137 105.701L471.583 104.073L471.318 100.082L446.872 101.71L447.137 105.701ZM469.455 102.21L470.227 113.805L474.218 113.539L473.446 101.945L469.455 102.21ZM472.09 111.676L447.644 113.304L447.909 117.295L472.355 115.667L472.09 111.676ZM448.41 94.702L447.638 83.1076L443.646 83.3734L444.418 94.9677L448.41 94.702ZM445.775 85.2361L471.268 83.5387L471.003 79.5475L445.509 81.2449L445.775 85.2361ZM469.14 81.676L469.912 93.2703L473.903 93.0046L473.131 81.4103L469.14 81.676ZM471.775 91.1419L446.281 92.8392L446.547 96.8304L472.04 95.133L471.775 91.1419ZM503.818 127.493L502.963 129.301L502.973 129.306L502.983 129.311L503.818 127.493ZM495.708 120.527L494.043 121.635L494.043 121.635L495.708 120.527ZM490.291 80.2677L490.158 78.2722L488.163 78.405L488.296 80.4006L490.291 80.2677ZM504.26 79.3377L506.256 79.2048L506.123 77.2092L504.127 77.3421L504.26 79.3377ZM507.628 114.121L506.007 115.291L506.007 115.291L507.628 114.121ZM510.594 116.519L509.792 118.351L509.835 118.37L509.879 118.387L510.594 116.519ZM518.487 115.994L519.498 117.719L519.512 117.711L519.525 117.703L518.487 115.994ZM521.043 113.298L522.817 114.222L522.826 114.205L522.834 114.188L521.043 113.298ZM519.696 78.31L519.563 76.3144L517.568 76.4472L517.701 78.4428L519.696 78.31ZM533.735 77.3752L535.731 77.2424L535.598 75.2468L533.602 75.3797L533.735 77.3752ZM533.708 118.067L531.911 117.189L531.907 117.198L533.708 118.067ZM526.658 125.973L527.737 127.657L527.745 127.651L526.658 125.973ZM515.317 127.389C511.213 127.663 507.678 127.066 504.654 125.676L502.983 129.311C506.713 131.025 510.933 131.69 515.583 131.38L515.317 127.389ZM504.674 125.685C501.614 124.238 499.193 122.155 497.373 119.419L494.043 121.635C496.276 124.99 499.262 127.551 502.963 129.301L504.674 125.685ZM497.373 119.419C495.562 116.698 494.506 113.472 494.254 109.679L490.263 109.945C490.556 114.348 491.8 118.265 494.043 121.635L497.373 119.419ZM494.254 109.679L492.287 80.1349L488.296 80.4006L490.263 109.945L494.254 109.679ZM490.424 82.2633L504.393 81.3333L504.127 77.3421L490.158 78.2722L490.424 82.2633ZM502.265 79.4705L504.315 110.272L508.307 110.007L506.256 79.2048L502.265 79.4705ZM504.315 110.272C504.441 112.154 504.974 113.86 506.007 115.291L509.25 112.95C508.737 112.24 508.392 111.292 508.307 110.007L504.315 110.272ZM506.007 115.291C506.988 116.65 508.258 117.679 509.792 118.351L511.397 114.687C510.521 114.303 509.815 113.733 509.25 112.95L506.007 115.291ZM509.879 118.387C511.419 118.977 513.056 119.201 514.764 119.088L514.498 115.097C513.32 115.175 512.266 115.018 511.31 114.651L509.879 118.387ZM514.764 119.088C516.505 118.972 518.103 118.537 519.498 117.719L517.476 114.268C516.71 114.717 515.738 115.014 514.498 115.097L514.764 119.088ZM519.525 117.703C520.946 116.839 522.06 115.676 522.817 114.222L519.27 112.374C518.866 113.149 518.275 113.782 517.448 114.284L519.525 117.703ZM522.834 114.188C523.601 112.647 523.871 110.907 523.747 109.049L519.756 109.314C519.843 110.623 519.641 111.627 519.253 112.407L522.834 114.188ZM523.747 109.049L521.692 78.1771L517.701 78.4428L519.756 109.314L523.747 109.049ZM519.829 80.3055L533.868 79.3708L533.602 75.3797L519.563 76.3144L519.829 80.3055ZM531.739 77.5081L533.711 107.123L537.702 106.857L535.731 77.2424L531.739 77.5081ZM533.711 107.123C533.964 110.915 533.345 114.253 531.911 117.189L535.505 118.944C537.282 115.306 537.995 111.259 537.702 106.857L533.711 107.123ZM531.907 117.198C530.511 120.092 528.414 122.452 525.571 124.294L527.745 127.651C531.178 125.427 533.782 122.517 535.51 118.936L531.907 117.198ZM525.579 124.289C522.818 126.058 519.422 127.116 515.317 127.389L515.583 131.38C520.231 131.071 524.308 129.854 527.737 127.657L525.579 124.289ZM558.34 125.687L556.344 125.82L556.477 127.816L558.472 127.683L558.34 125.687ZM555.029 75.9575L554.896 73.9619L552.9 74.0948L553.033 76.0904L555.029 75.9575ZM568.998 75.0275L570.993 74.8946L570.86 72.899L568.865 73.0319L568.998 75.0275ZM572.309 124.757L572.442 126.753L574.437 126.62L574.304 124.624L572.309 124.757ZM569.724 124.929L567.729 125.062L567.862 127.058L569.857 126.925L569.724 124.929ZM568.934 113.056L568.801 111.06L566.805 111.193L566.938 113.189L568.934 113.056ZM592.192 111.507L594.188 111.374L594.055 109.379L592.059 109.512L592.192 111.507ZM592.983 123.381L593.116 125.376L595.111 125.244L594.978 123.248L592.983 123.381ZM560.335 125.555L557.024 75.8246L553.033 76.0904L556.344 125.82L560.335 125.555ZM555.161 77.9531L569.131 77.023L568.865 73.0319L554.896 73.9619L555.161 77.9531ZM567.002 75.1603L570.313 124.89L574.304 124.624L570.993 74.8946L567.002 75.1603ZM572.176 122.762L558.207 123.692L558.472 127.683L572.442 126.753L572.176 122.762ZM571.72 124.797L570.929 112.923L566.938 113.189L567.729 125.062L571.72 124.797ZM569.067 115.051L592.325 113.503L592.059 109.512L568.801 111.06L569.067 115.051ZM590.197 111.64L590.987 123.514L594.978 123.248L594.188 111.374L590.197 111.64ZM592.85 121.385L569.592 122.934L569.857 126.925L593.116 125.376L592.85 121.385Z" fill="#65666A" mask="url(#path-7-outside-2_21_241)"/>
<path d="M1357.77 123.425L1357.57 121.525L1357.27 119.625L1356.77 116.125C1356.57 114.925 1356.27 113.725 1356.07 112.625C1355.77 111.425 1355.57 110.225 1355.27 109.125L1354.27 105.725L1353.77 104.025L1353.27 102.325L1352.07 98.925C1351.57 97.725 1351.27 96.725 1350.77 95.525L1350.07 93.825L1349.37 92.125L1347.87 88.725L1346.17 85.525C1343.77 81.325 1341.07 77.225 1337.87 73.425C1334.67 69.725 1331.17 66.325 1327.07 63.325C1323.07 60.425 1318.77 57.925 1314.07 56.125C1311.67 55.325 1309.37 54.425 1306.97 53.725C1304.57 53.025 1302.27 52.525 1299.77 52.225C1297.27 51.925 1294.87 51.925 1292.37 52.225C1289.87 52.525 1287.47 53.025 1285.17 54.225C1284.97 54.225 1284.97 54.425 1284.87 54.525C1284.87 54.825 1284.87 55.025 1285.17 55.225C1289.87 56.525 1294.27 57.625 1298.67 58.625C1303.07 59.425 1307.27 60.625 1311.27 62.525C1319.43 66.019 1326.73 71.2388 1332.67 77.825C1335.67 81.225 1338.37 84.725 1340.77 88.625L1342.47 91.525L1343.97 94.525C1344.27 95.025 1344.47 95.525 1344.77 96.025L1345.47 97.525C1345.97 98.525 1346.47 99.525 1346.77 100.725C1348.47 104.925 1349.97 109.325 1350.97 113.725C1351.17 114.925 1351.47 115.925 1351.77 117.125L1352.27 120.525L1352.47 122.225L1352.67 123.925L1352.87 127.325C1352.87 131.825 1352.67 136.425 1351.67 140.825C1351.37 143.025 1350.67 145.225 1350.17 147.425C1349.87 148.425 1349.47 149.625 1349.17 150.625L1348.67 152.325C1348.47 152.825 1348.17 153.325 1347.97 153.825L1346.67 157.025L1345.17 160.025C1344.87 160.525 1344.67 161.025 1344.37 161.525L1343.57 163.025C1343.07 164.025 1342.37 165.025 1341.87 165.925C1339.47 169.825 1336.77 173.525 1333.97 177.025C1331.17 180.525 1328.07 183.925 1324.87 187.125C1321.67 190.325 1318.27 193.325 1314.77 196.425C1311.27 199.425 1307.67 202.125 1303.97 204.825C1302.07 206.125 1300.27 207.525 1298.37 208.725C1297.67 209.225 1296.87 209.725 1295.97 210.225L1298.37 202.625C1299.17 199.625 1300.07 196.725 1300.87 193.725L1302.07 189.225C1302.57 187.725 1302.77 186.225 1301.37 184.125C1301.17 183.925 1300.87 183.825 1300.67 183.825C1298.47 184.625 1297.47 186.025 1296.97 187.525L1295.07 191.725C1293.87 194.625 1292.67 197.425 1291.67 200.325C1290.67 203.225 1289.67 206.225 1288.67 209.125L1287.17 213.625L1286.47 216.025C1286.27 216.825 1285.97 217.525 1285.77 218.525V220.525C1285.77 220.825 1285.77 221.025 1285.97 221.325C1286.17 221.625 1286.27 222.125 1286.47 222.525C1286.67 222.825 1286.97 223.025 1287.17 223.225C1287.37 223.425 1287.37 223.425 1287.47 223.425L1287.77 223.625C1287.97 223.825 1288.07 223.825 1288.27 223.925C1288.47 224.125 1288.77 224.125 1289.07 224.225L1289.57 224.425H1290.07C1291.27 224.625 1292.07 224.625 1292.97 224.625C1294.67 224.625 1296.37 224.425 1297.87 224.325C1301.07 224.025 1304.07 223.625 1307.17 223.125C1313.37 222.325 1319.47 221.225 1325.57 220.225C1327.07 219.925 1328.27 218.525 1328.07 217.025C1327.87 215.325 1326.37 214.025 1324.67 214.125C1318.47 214.625 1312.37 215.325 1306.17 216.025C1305.47 216.025 1304.87 216.225 1304.17 216.225C1305.87 215.025 1307.57 213.725 1309.27 212.325C1312.97 209.325 1316.67 206.225 1320.27 202.925C1327.37 196.325 1333.77 189.125 1339.27 181.325C1341.97 177.425 1344.67 173.225 1346.87 169.025C1347.37 168.025 1347.87 166.825 1348.57 165.825L1349.37 164.125C1349.67 163.625 1349.87 162.925 1350.07 162.425L1351.57 159.025L1352.77 155.625C1353.27 154.425 1353.57 153.225 1353.97 152.225C1354.27 151.025 1354.67 149.825 1354.97 148.725C1355.47 146.325 1356.17 144.025 1356.47 141.625C1356.67 140.425 1356.97 139.225 1356.97 138.125L1357.27 134.425C1357.47 133.225 1357.47 132.025 1357.47 130.725V127.025L1357.77 123.425Z" fill="#65656A"/>
</svg>
